<svg width="100" height="80" viewBox="0 0 100 80" fill="none" xmlns="http://www.w3.org/2000/svg">
<g opacity="0.05" clip-path="url(#clip0)">
<path d="M116.769 6.41663L116 5.12887L116.769 6.41663ZM-0.769217 5.45438L2.99752 7.70438L4.53596 5.12887L0.769217 2.87887L-0.769217 5.45438ZM117.538 7.70438L121.305 5.45438L119.767 2.87887L116 5.12887L117.538 7.70438ZM108.466 7.70438C111.26 9.37317 114.744 9.37317 117.538 7.70438L116 5.12887C114.154 6.23167 111.851 6.23167 110.005 5.12887L108.466 7.70438ZM93.3993 7.70438C96.1931 9.37317 99.6775 9.37317 102.471 7.70438L100.933 5.12887C99.0866 6.23167 96.784 6.23167 94.9378 5.12887L93.3993 7.70438ZM102.471 7.70438C104.317 6.60158 106.62 6.60158 108.466 7.70438L110.005 5.12887C107.211 3.46008 103.727 3.46008 100.933 5.12887L102.471 7.70438ZM78.3324 7.70438C81.1261 9.37317 84.6105 9.37317 87.4043 7.70438L85.8658 5.12887C84.0196 6.23167 81.717 6.23167 79.8708 5.12887L78.3324 7.70438ZM63.2654 7.70438C66.0591 9.37317 69.5436 9.37317 72.3373 7.70438L70.7989 5.12887C68.9527 6.23167 66.65 6.23167 64.8038 5.12887L63.2654 7.70438ZM72.3373 7.70438C74.1835 6.60158 76.4861 6.60158 78.3324 7.70438L79.8708 5.12887C77.077 3.46008 73.5926 3.46008 70.7989 5.12887L72.3373 7.70438ZM87.4043 7.70438C89.2505 6.60158 91.5531 6.60158 93.3993 7.70438L94.9378 5.12887C92.144 3.46008 88.6596 3.46008 85.8658 5.12887L87.4043 7.70438ZM33.1315 7.70438C35.9252 9.37317 39.4096 9.37317 42.2034 7.70438L40.6649 5.12887C38.8187 6.23167 36.5161 6.23167 34.6699 5.12887L33.1315 7.70438ZM48.1984 7.70438C50.9922 9.37317 54.4766 9.37317 57.2703 7.70438L55.7319 5.12887C53.8857 6.23167 51.5831 6.23167 49.7369 5.12887L48.1984 7.70438ZM49.7369 5.12887C46.9431 3.46008 43.4587 3.46008 40.6649 5.12887L42.2034 7.70438C44.0496 6.60158 46.3522 6.60158 48.1984 7.70438L49.7369 5.12887ZM18.0645 7.70438C20.8582 9.37317 24.3427 9.37317 27.1364 7.70438L25.598 5.12887C23.7518 6.23167 21.4491 6.23167 19.6029 5.12887L18.0645 7.70438ZM2.99752 7.70438C5.79127 9.37317 9.2757 9.37317 12.0694 7.70438L10.531 5.12887C8.6848 6.23167 6.38216 6.23167 4.53596 5.12887L2.99752 7.70438ZM12.0694 7.70438C13.9156 6.60158 16.2183 6.60158 18.0645 7.70438L19.6029 5.12887C16.8092 3.46008 13.3247 3.46008 10.531 5.12887L12.0694 7.70438ZM27.1364 7.70438C28.9826 6.60158 31.2853 6.60158 33.1315 7.70438L34.6699 5.12887C31.8761 3.46008 28.3917 3.46008 25.598 5.12887L27.1364 7.70438ZM57.2703 7.70438C59.1165 6.60158 61.4192 6.60158 63.2654 7.70438L64.8038 5.12887C62.0101 3.46008 58.5256 3.46008 55.7319 5.12887L57.2703 7.70438Z" fill="#1D1D1B"/>
<path d="M116.769 24.4166L116 23.1289L116.769 24.4166ZM-0.769217 23.4544L2.99752 25.7044L4.53596 23.1289L0.769217 20.8789L-0.769217 23.4544ZM117.538 25.7044L121.305 23.4544L119.767 20.8789L116 23.1289L117.538 25.7044ZM108.466 25.7044C111.26 27.3732 114.744 27.3732 117.538 25.7044L116 23.1289C114.154 24.2317 111.851 24.2317 110.005 23.1289L108.466 25.7044ZM93.3993 25.7044C96.1931 27.3732 99.6775 27.3732 102.471 25.7044L100.933 23.1289C99.0866 24.2317 96.784 24.2317 94.9377 23.1289L93.3993 25.7044ZM102.471 25.7044C104.317 24.6016 106.62 24.6016 108.466 25.7044L110.005 23.1289C107.211 21.4601 103.727 21.4601 100.933 23.1289L102.471 25.7044ZM78.3324 25.7044C81.1261 27.3732 84.6105 27.3732 87.4043 25.7044L85.8658 23.1289C84.0196 24.2317 81.717 24.2317 79.8708 23.1289L78.3324 25.7044ZM63.2654 25.7044C66.0591 27.3732 69.5436 27.3732 72.3373 25.7044L70.7989 23.1289C68.9527 24.2317 66.65 24.2317 64.8038 23.1289L63.2654 25.7044ZM72.3373 25.7044C74.1835 24.6016 76.4861 24.6016 78.3324 25.7044L79.8708 23.1289C77.077 21.4601 73.5926 21.4601 70.7989 23.1289L72.3373 25.7044ZM87.4043 25.7044C89.2505 24.6016 91.5531 24.6016 93.3993 25.7044L94.9377 23.1289C92.144 21.4601 88.6596 21.4601 85.8658 23.1289L87.4043 25.7044ZM33.1315 25.7044C35.9252 27.3732 39.4096 27.3732 42.2034 25.7044L40.6649 23.1289C38.8187 24.2317 36.5161 24.2317 34.6699 23.1289L33.1315 25.7044ZM48.1984 25.7044C50.9922 27.3732 54.4766 27.3732 57.2703 25.7044L55.7319 23.1289C53.8857 24.2317 51.5831 24.2317 49.7369 23.1289L48.1984 25.7044ZM49.7369 23.1289C46.9431 21.4601 43.4587 21.4601 40.6649 23.1289L42.2034 25.7044C44.0496 24.6016 46.3522 24.6016 48.1984 25.7044L49.7369 23.1289ZM18.0645 25.7044C20.8582 27.3732 24.3427 27.3732 27.1364 25.7044L25.598 23.1289C23.7518 24.2317 21.4491 24.2317 19.6029 23.1289L18.0645 25.7044ZM2.99752 25.7044C5.79126 27.3732 9.2757 27.3732 12.0694 25.7044L10.531 23.1289C8.6848 24.2317 6.38216 24.2317 4.53596 23.1289L2.99752 25.7044ZM12.0694 25.7044C13.9156 24.6016 16.2183 24.6016 18.0645 25.7044L19.6029 23.1289C16.8092 21.4601 13.3247 21.4601 10.531 23.1289L12.0694 25.7044ZM27.1364 25.7044C28.9826 24.6016 31.2852 24.6016 33.1315 25.7044L34.6699 23.1289C31.8761 21.4601 28.3917 21.4601 25.598 23.1289L27.1364 25.7044ZM57.2703 25.7044C59.1165 24.6016 61.4192 24.6016 63.2654 25.7044L64.8038 23.1289C62.0101 21.4601 58.5256 21.4601 55.7319 23.1289L57.2703 25.7044Z" fill="#1D1D1B"/>
<path d="M116.769 42.4166L116 41.1289L116.769 42.4166ZM-0.769217 41.4544L2.99752 43.7044L4.53596 41.1289L0.769217 38.8789L-0.769217 41.4544ZM117.538 43.7044L121.305 41.4544L119.767 38.8789L116 41.1289L117.538 43.7044ZM108.466 43.7044C111.26 45.3732 114.744 45.3732 117.538 43.7044L116 41.1289C114.154 42.2317 111.851 42.2317 110.005 41.1289L108.466 43.7044ZM93.3993 43.7044C96.1931 45.3732 99.6775 45.3732 102.471 43.7044L100.933 41.1289C99.0866 42.2317 96.784 42.2317 94.9377 41.1289L93.3993 43.7044ZM102.471 43.7044C104.317 42.6016 106.62 42.6016 108.466 43.7044L110.005 41.1289C107.211 39.4601 103.727 39.4601 100.933 41.1289L102.471 43.7044ZM78.3324 43.7044C81.1261 45.3732 84.6105 45.3732 87.4043 43.7044L85.8658 41.1289C84.0196 42.2317 81.717 42.2317 79.8708 41.1289L78.3324 43.7044ZM63.2654 43.7044C66.0591 45.3732 69.5436 45.3732 72.3373 43.7044L70.7989 41.1289C68.9527 42.2317 66.65 42.2317 64.8038 41.1289L63.2654 43.7044ZM72.3373 43.7044C74.1835 42.6016 76.4861 42.6016 78.3324 43.7044L79.8708 41.1289C77.077 39.4601 73.5926 39.4601 70.7989 41.1289L72.3373 43.7044ZM87.4043 43.7044C89.2505 42.6016 91.5531 42.6016 93.3993 43.7044L94.9377 41.1289C92.144 39.4601 88.6596 39.4601 85.8658 41.1289L87.4043 43.7044ZM33.1315 43.7044C35.9252 45.3732 39.4096 45.3732 42.2034 43.7044L40.6649 41.1289C38.8187 42.2317 36.5161 42.2317 34.6699 41.1289L33.1315 43.7044ZM48.1984 43.7044C50.9922 45.3732 54.4766 45.3732 57.2703 43.7044L55.7319 41.1289C53.8857 42.2317 51.5831 42.2317 49.7369 41.1289L48.1984 43.7044ZM49.7369 41.1289C46.9431 39.4601 43.4587 39.4601 40.6649 41.1289L42.2034 43.7044C44.0496 42.6016 46.3522 42.6016 48.1984 43.7044L49.7369 41.1289ZM18.0645 43.7044C20.8582 45.3732 24.3427 45.3732 27.1364 43.7044L25.598 41.1289C23.7518 42.2317 21.4491 42.2317 19.6029 41.1289L18.0645 43.7044ZM2.99752 43.7044C5.79127 45.3732 9.2757 45.3732 12.0694 43.7044L10.531 41.1289C8.6848 42.2317 6.38216 42.2317 4.53596 41.1289L2.99752 43.7044ZM12.0694 43.7044C13.9156 42.6016 16.2183 42.6016 18.0645 43.7044L19.6029 41.1289C16.8092 39.4601 13.3247 39.4601 10.531 41.1289L12.0694 43.7044ZM27.1364 43.7044C28.9826 42.6016 31.2852 42.6016 33.1315 43.7044L34.6699 41.1289C31.8761 39.4601 28.3917 39.4601 25.598 41.1289L27.1364 43.7044ZM57.2703 43.7044C59.1165 42.6016 61.4192 42.6016 63.2654 43.7044L64.8038 41.1289C62.0101 39.4601 58.5256 39.4601 55.7319 41.1289L57.2703 43.7044Z" fill="#1D1D1B"/>
<path d="M116.769 60.4166L116 59.1289L116.769 60.4166ZM-0.769217 59.4544L2.99752 61.7044L4.53596 59.1289L0.769217 56.8789L-0.769217 59.4544ZM117.538 61.7044L121.305 59.4544L119.767 56.8789L116 59.1289L117.538 61.7044ZM108.466 61.7044C111.26 63.3732 114.744 63.3732 117.538 61.7044L116 59.1289C114.154 60.2317 111.851 60.2317 110.005 59.1289L108.466 61.7044ZM93.3993 61.7044C96.1931 63.3732 99.6775 63.3732 102.471 61.7044L100.933 59.1289C99.0866 60.2317 96.784 60.2317 94.9377 59.1289L93.3993 61.7044ZM102.471 61.7044C104.317 60.6016 106.62 60.6016 108.466 61.7044L110.005 59.1289C107.211 57.4601 103.727 57.4601 100.933 59.1289L102.471 61.7044ZM78.3324 61.7044C81.1261 63.3732 84.6105 63.3732 87.4043 61.7044L85.8658 59.1289C84.0196 60.2317 81.717 60.2317 79.8708 59.1289L78.3324 61.7044ZM63.2654 61.7044C66.0591 63.3732 69.5436 63.3732 72.3373 61.7044L70.7989 59.1289C68.9527 60.2317 66.65 60.2317 64.8038 59.1289L63.2654 61.7044ZM72.3373 61.7044C74.1835 60.6016 76.4861 60.6016 78.3324 61.7044L79.8708 59.1289C77.077 57.4601 73.5926 57.4601 70.7989 59.1289L72.3373 61.7044ZM87.4043 61.7044C89.2505 60.6016 91.5531 60.6016 93.3993 61.7044L94.9377 59.1289C92.144 57.4601 88.6596 57.4601 85.8658 59.1289L87.4043 61.7044ZM33.1315 61.7044C35.9252 63.3732 39.4096 63.3732 42.2034 61.7044L40.6649 59.1289C38.8187 60.2317 36.5161 60.2317 34.6699 59.1289L33.1315 61.7044ZM48.1984 61.7044C50.9922 63.3732 54.4766 63.3732 57.2703 61.7044L55.7319 59.1289C53.8857 60.2317 51.5831 60.2317 49.7369 59.1289L48.1984 61.7044ZM49.7369 59.1289C46.9431 57.4601 43.4587 57.4601 40.6649 59.1289L42.2034 61.7044C44.0496 60.6016 46.3522 60.6016 48.1984 61.7044L49.7369 59.1289ZM18.0645 61.7044C20.8582 63.3732 24.3427 63.3732 27.1364 61.7044L25.598 59.1289C23.7518 60.2317 21.4491 60.2317 19.6029 59.1289L18.0645 61.7044ZM2.99752 61.7044C5.79127 63.3732 9.2757 63.3732 12.0694 61.7044L10.531 59.1289C8.6848 60.2317 6.38216 60.2317 4.53596 59.1289L2.99752 61.7044ZM12.0694 61.7044C13.9156 60.6016 16.2183 60.6016 18.0645 61.7044L19.6029 59.1289C16.8092 57.4601 13.3247 57.4601 10.531 59.1289L12.0694 61.7044ZM27.1364 61.7044C28.9826 60.6016 31.2852 60.6016 33.1315 61.7044L34.6699 59.1289C31.8761 57.4601 28.3917 57.4601 25.598 59.1289L27.1364 61.7044ZM57.2703 61.7044C59.1165 60.6016 61.4192 60.6016 63.2654 61.7044L64.8038 59.1289C62.0101 57.4601 58.5256 57.4601 55.7319 59.1289L57.2703 61.7044Z" fill="#1D1D1B"/>
</g>
<g clip-path="url(#clip1)">
<path d="M34.7169 16.0047L33.278 14.0567C37.9233 10.6353 43.3638 8.45384 49.086 7.71815C54.8083 6.98246 60.6237 7.71681 65.9834 9.85191L65.0844 12.1009C60.1078 10.1189 54.7082 9.43719 49.3951 10.1202C44.082 10.8032 39.0304 12.8284 34.7169 16.0047V16.0047Z" fill="black"/>
<path d="M87.2246 43.7567L84.8087 43.5869C84.8606 42.8467 84.8871 42.0931 84.8871 41.3467C84.8882 36.0116 83.5345 30.7636 80.9529 26.0948L83.0707 24.9196C85.8515 29.9481 87.3098 35.6004 87.3089 41.3467C87.3089 42.1495 87.2805 42.9604 87.2246 43.7567V43.7567Z" fill="black"/>
<path d="M34.6786 44.5177C33.5262 44.5171 32.3979 44.1877 31.4262 43.5681C30.4546 42.9486 29.6799 42.0646 29.1933 41.02C28.7066 39.9754 28.5281 38.8136 28.6788 37.6712C28.8295 36.5287 29.3032 35.4529 30.0441 34.5703C30.785 33.6877 31.7624 33.0348 32.8614 32.6884C33.9605 32.342 35.1356 32.3164 36.2487 32.6147C37.3618 32.913 38.3667 33.5227 39.1453 34.3723C39.9239 35.2219 40.4438 36.276 40.6441 37.4109C40.7973 38.2818 40.7579 39.1757 40.5288 40.0297C40.2996 40.8838 39.8863 41.6774 39.3178 42.3546C38.7492 43.0319 38.0393 43.5765 37.2378 43.9502C36.4364 44.3238 35.5628 44.5175 34.6786 44.5175V44.5177ZM34.6831 34.8291C33.9375 34.8288 33.2099 35.0578 32.5989 35.4852C31.988 35.9126 31.5234 36.5176 31.2681 37.2182C31.0128 37.9187 30.9793 38.6808 31.172 39.401C31.3647 40.1213 31.7744 40.7648 32.3454 41.2442C32.9165 41.7236 33.6212 42.0157 34.3639 42.0809C35.1066 42.146 35.8514 41.981 36.4972 41.6084C37.143 41.2357 37.6584 40.6733 37.9736 39.9976C38.2888 39.3219 38.3884 38.5656 38.259 37.8314C38.1108 36.9904 37.671 36.2285 37.017 35.6795C36.363 35.1305 35.5364 34.8294 34.6825 34.8291H34.6831Z" fill="#E11F1D"/>
<path d="M58.2464 42.5581H55.8245C55.8245 42.2369 55.697 41.9289 55.4699 41.7018C55.2428 41.4747 54.9348 41.3472 54.6136 41.3472C54.2924 41.3472 53.9844 41.4747 53.7573 41.7018C53.5302 41.9289 53.4027 42.2369 53.4027 42.5581H50.9808C50.9808 41.5946 51.3635 40.6706 52.0448 39.9893C52.7261 39.308 53.6501 38.9253 54.6136 38.9253C55.5771 38.9253 56.5011 39.308 57.1824 39.9893C57.8637 40.6706 58.2464 41.5946 58.2464 42.5581V42.5581Z" fill="#E11F1D"/>
<path d="M52.185 49.8227C51.5494 49.8228 50.9249 49.6552 50.3748 49.3368L51.5858 47.2391C51.7236 47.321 51.8762 47.3747 52.0349 47.3971C52.1937 47.4195 52.3552 47.4101 52.5103 47.3696C52.6654 47.3291 52.8109 47.2582 52.9383 47.161C53.0658 47.0638 53.1727 46.9423 53.2528 46.8035C53.333 46.6647 53.3848 46.5114 53.4052 46.3524C53.4257 46.1935 53.4143 46.032 53.3719 45.8775C53.3295 45.7229 53.2568 45.5783 53.158 45.452C53.0593 45.3258 52.9365 45.2204 52.7967 45.142L54.0076 43.0443C54.7004 43.4446 55.2416 44.0623 55.5474 44.8016C55.8531 45.541 55.9062 46.3606 55.6985 47.1332C55.4907 47.9058 55.0337 48.5882 54.3984 49.0745C53.7631 49.5609 52.9851 49.8238 52.185 49.8227V49.8227Z" fill="#E11F1D"/>
<path d="M49.7763 46.1899C48.9762 46.191 48.1982 45.928 47.5629 45.4417C46.9276 44.9554 46.4707 44.2729 46.263 43.5003C46.0552 42.7277 46.1084 41.9081 46.4141 41.1688C46.7198 40.4295 47.2611 39.8117 47.9538 39.4115L49.1648 41.5091C49.025 41.5876 48.9022 41.693 48.8034 41.8192C48.7047 41.9455 48.632 42.0901 48.5896 42.2446C48.5471 42.3992 48.5358 42.5606 48.5562 42.7196C48.5767 42.8786 48.6285 43.0319 48.7086 43.1707C48.7888 43.3095 48.8957 43.431 49.0231 43.5282C49.1506 43.6254 49.2961 43.6963 49.4512 43.7368C49.6062 43.7773 49.7678 43.7867 49.9265 43.7643C50.0852 43.7419 50.2379 43.6882 50.3757 43.6063L51.5866 45.704C51.0365 46.0225 50.412 46.1901 49.7763 46.1899Z" fill="#E11F1D"/>
<path d="M58.2397 46.1899C57.6041 46.19 56.9796 46.0224 56.4295 45.704L57.6404 43.6063C57.7782 43.6882 57.9309 43.7419 58.0896 43.7643C58.2483 43.7867 58.4099 43.7773 58.565 43.7368C58.7201 43.6963 58.8655 43.6254 58.993 43.5282C59.1205 43.431 59.2274 43.3095 59.3075 43.1707C59.3877 43.0319 59.4395 42.8786 59.4599 42.7196C59.4803 42.5606 59.469 42.3992 59.4266 42.2446C59.3842 42.0901 59.3115 41.9455 59.2127 41.8192C59.114 41.693 58.9912 41.5876 58.8514 41.5091L60.0623 39.4115C60.7551 39.8117 61.2963 40.4295 61.6021 41.1688C61.9078 41.9082 61.9609 42.7278 61.7532 43.5004C61.5454 44.273 61.0884 44.9554 60.4531 45.4417C59.8178 45.9281 59.0398 46.191 58.2397 46.1899Z" fill="#E11F1D"/>
<path d="M89.6784 74.8591L88.2805 67.6599L85.903 68.1213L87.0667 74.1118L84.7025 74.5286L82.5997 62.6033L84.7584 62.2226L85.4336 65.6998L87.8111 65.2385L76.2904 5.90254C76.2299 5.59082 76.0494 5.31534 75.7877 5.13545C75.5261 4.95555 75.2042 4.88563 74.8915 4.94075L71.3138 5.5715L67.7362 6.20224C67.4235 6.25735 67.1449 6.43312 66.9605 6.69167C66.7761 6.95023 66.7006 7.27087 66.7504 7.58453L68.1446 16.3746C67.2756 15.4626 66.3013 14.657 65.2423 13.9748C62.1618 11.9313 59.6122 10.6832 57.1812 11.2376C55.6676 11.5829 54.3776 12.635 53.3489 14.3649C53.0689 14.8359 52.816 15.27 52.5856 15.676C52.3434 15.4999 52.0911 15.3248 51.8287 15.1506C48.7484 13.1072 46.1986 11.8587 43.768 12.4134C42.2543 12.7587 40.9642 13.811 39.9357 15.5407C38.0436 18.7233 36.8496 21.1336 36.5343 23.485C34.9119 22.2818 33.2975 21.779 31.7989 22.0424C29.256 22.4907 27.1536 25.1303 25.8794 29.4745C24.8836 32.8703 24.5333 36.9605 25.008 39.6523C25.1261 40.3242 25.3086 40.9831 25.5529 41.6201C25.5977 46.9514 27.2888 52.1387 30.3948 56.472L27.8254 59.6877C23.304 53.392 21.2658 45.6488 22.1018 37.943C22.9378 30.2371 26.589 23.1111 32.3553 17.9315L30.7357 16.1303C24.4409 21.7909 20.4902 29.6007 19.6597 38.0255C18.8292 46.4503 21.179 54.8812 26.2474 61.662L20.8262 68.4467C20.2727 69.1451 19.9952 70.0226 20.0465 70.9123C20.0978 71.8019 20.4743 72.6417 21.1044 73.2718L21.478 73.6456C22.1088 74.276 22.9494 74.6524 23.8398 74.7031C24.7302 74.7539 25.6082 74.4754 26.3066 73.9208L33.0878 68.5018C39.1277 73.0162 46.4996 75.3897 54.0389 75.2471C61.5781 75.1046 68.855 72.4542 74.72 67.7147L73.1963 65.8323C67.8373 70.1667 61.2032 72.6211 54.3136 72.8183C47.424 73.0156 40.6603 70.9447 35.0621 66.9241L38.6154 64.0846C43.0787 66.7721 48.1926 68.1863 53.4025 68.1738C54.6593 68.1738 55.9147 68.0929 57.1611 67.9316L56.849 65.5299C55.7061 65.6779 54.5549 65.7521 53.4025 65.7521C48.939 65.7624 44.5471 64.6302 40.6448 62.4632L41.6083 61.6933C41.6684 61.6452 41.7237 61.5913 41.7733 61.5324C42.2698 61.0734 42.6858 60.5344 43.0039 59.9377C43.1136 59.7324 43.1618 59.4997 43.1426 59.2676C43.1235 59.0355 43.0378 58.8139 42.8959 58.6293C42.754 58.4447 42.5619 58.3048 42.3426 58.2266C42.1232 58.1484 41.886 58.1351 41.6593 58.1882C40.9564 58.3528 40.2232 58.3353 39.5289 58.1374C38.8347 57.9394 38.2025 57.5677 37.692 57.0572C37.1816 56.5467 36.8098 55.9145 36.6119 55.2203C36.414 54.526 36.3965 53.7928 36.5611 53.0899C36.6142 52.8632 36.6008 52.626 36.5226 52.4068C36.4444 52.1875 36.3046 51.9954 36.12 51.8535C35.9354 51.7117 35.7138 51.626 35.4818 51.6068C35.2497 51.5877 35.0171 51.6358 34.8117 51.7455C34.217 52.0626 33.6795 52.477 33.2215 52.9715C33.161 53.0226 33.1057 53.0795 33.0563 53.1414L31.9736 54.4961C30.1819 51.8339 28.9548 48.8327 28.368 45.6779C30.1246 47.2451 32.3927 48.1173 34.7466 48.131C36.3194 48.1296 37.867 47.7355 39.2488 46.9843C40.6306 46.2332 41.8029 45.1487 42.6592 43.8296C43.9064 41.9445 44.4987 39.7016 44.3448 37.4466C44.9023 37.6018 45.4783 37.6806 46.057 37.6807C46.4371 37.6805 46.8165 37.6468 47.1907 37.5801C49.2255 37.2175 51.0052 35.9112 52.1996 33.9018L52.6428 33.158L52.8969 32.7318L52.8978 32.7304L53.1249 32.3487C53.1973 32.4716 53.2716 32.5974 53.348 32.726C54.7757 35.1269 57.0111 36.5038 59.4803 36.5038C61.9496 36.5038 64.185 35.1264 65.6127 32.726L66.0557 31.9822C66.3431 31.5005 66.6241 31.0276 66.8986 30.5634C67.4224 29.6743 67.9215 28.8053 68.3653 27.9652C68.3748 27.9472 68.3838 27.929 68.3924 27.9106C68.8336 27.0852 69.2267 26.235 69.5697 25.3643L71.5726 37.9931C70.7625 38.3101 70.2147 38.839 69.7732 39.2654C69.1638 39.8536 68.8385 40.1365 68.106 40.1365C67.3735 40.1365 67.0486 39.8536 66.4393 39.2654C65.7616 38.6109 64.8333 37.7146 63.0902 37.7146V40.1365C63.8223 40.1365 64.1478 40.4193 64.7569 41.0075C65.4345 41.662 66.3629 42.5584 68.106 42.5584C69.8492 42.5584 70.7776 41.6621 71.4553 41.0075C71.6504 40.8192 71.8163 40.6622 71.9759 40.5358L72.4954 43.8105C71.147 43.9935 70.3647 44.749 69.7732 45.3201C69.1638 45.9083 68.8385 46.1912 68.106 46.1912C67.3735 46.1912 67.0486 45.9083 66.4393 45.3201C65.7616 44.6656 64.8333 43.7693 63.0902 43.7693V46.1912C63.8223 46.1912 64.1478 46.4739 64.7569 47.0622C65.4345 47.7167 66.3629 48.6131 68.106 48.6131C69.8492 48.6131 70.7776 47.7168 71.4553 47.0622C71.9915 46.5446 72.3078 46.2635 72.8748 46.2034L73.5793 50.6452V50.6462L73.7534 51.7436C73.0594 51.2677 72.2343 51.0199 71.3929 51.0349C69.6495 51.0349 68.721 51.931 68.0432 52.5855C67.4336 53.1739 67.1083 53.4568 66.3756 53.4568C65.6428 53.4568 65.3177 53.1739 64.7084 52.5857C64.0306 51.931 63.1023 51.0349 61.359 51.0349C59.6157 51.0349 58.6872 51.931 58.0094 52.5857C57.4 53.1739 57.0745 53.4568 56.3421 53.4568C55.6096 53.4568 55.2843 53.1739 54.6749 52.5857C53.9971 51.931 53.0689 51.0349 51.3256 51.0349C49.5823 51.0349 48.654 51.931 47.9761 52.5857C47.3667 53.1739 47.0414 53.4568 46.309 53.4568C45.5765 53.4568 45.2515 53.1739 44.6423 52.5857C43.9646 51.9312 43.0363 51.0349 41.2931 51.0349V53.4568C42.0253 53.4568 42.3507 53.7396 42.9598 54.3278C43.6375 54.9823 44.5658 55.8787 46.309 55.8787C48.0521 55.8787 48.9806 54.9824 49.6583 54.3278C50.2677 53.7396 50.5931 53.4568 51.3256 53.4568C52.0581 53.4568 52.3833 53.7396 52.9928 54.3278C53.6704 54.9824 54.5988 55.8787 56.3421 55.8787C58.0853 55.8787 59.0138 54.9824 59.6917 54.3278C60.3009 53.7396 60.6264 53.4568 61.359 53.4568C62.0916 53.4568 62.4167 53.7396 63.0261 54.3278C63.704 54.9824 64.6323 55.8787 66.3756 55.8787C68.1189 55.8787 69.0475 54.9824 69.7253 54.3279C70.3347 53.7396 70.6602 53.4568 71.3929 53.4568C72.1257 53.4568 72.451 53.7396 73.0606 54.3279C73.4212 54.701 73.825 55.03 74.2633 55.3077C73.1016 56.9036 71.7546 58.3561 70.2507 59.6347L70.2376 59.5008C70.1654 59.5079 70.0883 59.5115 70.0084 59.5115C69.2759 59.5115 68.9505 59.2286 68.3412 58.6404C67.6634 57.9857 66.7351 57.0896 64.9918 57.0896C63.2485 57.0896 62.32 57.9857 61.6422 58.6404C61.0328 59.2286 60.7073 59.5115 59.9749 59.5115C59.2424 59.5115 58.9171 59.2286 58.3077 58.6404C57.6299 57.9857 56.7017 57.0896 54.9584 57.0896C53.2151 57.0896 52.2868 57.9857 51.609 58.6404C50.9996 59.2286 50.6743 59.5115 49.9418 59.5115C49.2093 59.5115 48.8843 59.2286 48.2751 58.6404C47.5974 57.9859 46.6691 57.0896 44.9259 57.0896V59.5115C45.6581 59.5115 45.9835 59.7943 46.5926 60.3825C47.2703 61.037 48.1987 61.9334 49.9418 61.9334C51.6849 61.9334 52.6134 61.0371 53.2911 60.3825C53.9005 59.7943 54.2259 59.5115 54.9584 59.5115C55.6909 59.5115 56.0162 59.7943 56.6256 60.3825C57.3032 61.0371 58.2316 61.9334 59.9749 61.9334C61.7182 61.9334 62.6466 61.0371 63.3245 60.3825C63.9337 59.7943 64.2592 59.5115 64.9918 59.5115C65.7244 59.5115 66.0495 59.7943 66.6589 60.3825C67.0349 60.7717 67.4585 61.1119 67.9197 61.3951C65.2572 63.1693 62.2883 64.4335 59.1641 65.1236L59.6897 67.4878C65.5722 66.2008 70.881 63.0465 74.8243 58.4955L77.7531 76.9623C77.7783 77.1211 77.8348 77.2733 77.9194 77.41C78.004 77.5467 78.115 77.6652 78.2459 77.7586C78.3768 77.852 78.525 77.9183 78.6818 77.9538C78.8386 77.9893 79.001 77.9932 79.1593 77.9653L83.9296 77.124L88.6998 76.2828C88.8581 76.2549 89.0093 76.1958 89.1445 76.1089C89.2797 76.0219 89.3962 75.9089 89.4873 75.7765C89.5784 75.6441 89.6422 75.4948 89.675 75.3375C89.7078 75.1801 89.709 75.0178 89.6784 74.86V74.8591ZM34.2034 55.5856C34.4893 56.791 35.1047 57.8932 35.9807 58.7692C36.8567 59.6452 37.9589 60.2605 39.1643 60.5464L24.7996 72.0256C24.5668 72.2101 24.2743 72.3026 23.9778 72.2855C23.6812 72.2685 23.4013 72.143 23.1913 71.933L22.8177 71.5593C22.608 71.35 22.4824 71.071 22.4647 70.7752C22.447 70.4795 22.5385 70.1875 22.7219 69.9548L34.2034 55.5856ZM40.6413 42.4903C40.1144 43.3022 39.4264 43.9974 38.6199 44.5329C37.8135 45.0683 36.9058 45.4326 35.9529 45.6031C31.9753 46.3052 28.1357 43.4463 27.3926 39.2319C26.5581 34.4993 28.7138 25.045 32.219 24.427C32.3467 24.4047 32.4762 24.3936 32.6059 24.3939C36.0988 24.3939 41.0137 32.1269 41.8181 36.6884C42.188 38.7017 41.7665 40.7801 40.6413 42.4903ZM50.118 32.6637C49.288 34.0593 48.0977 34.9585 46.7661 35.1956C45.7253 35.3743 44.6556 35.1455 43.7789 34.5568C43.2702 32.9738 42.6074 31.4446 41.7999 29.9911C43.341 28.5563 45.3685 29.0697 49.2791 31.6645C49.6381 31.9025 49.9737 32.1416 50.2862 32.3817L50.118 32.6637ZM51.5274 30.2845C51.2393 30.0703 50.9362 29.8577 50.6181 29.6465C48.7778 28.4252 46.6234 27.1377 44.5978 26.8462C43.0538 26.6235 41.6915 26.9757 40.529 27.8947C40.3247 27.5895 40.116 27.2918 39.9031 27.0016C39.8798 26.97 39.8564 26.9383 39.833 26.907C40.1161 26.3969 40.4368 25.8409 40.8065 25.2196C41.4925 24.066 42.2413 23.4106 43.0958 23.2156C44.0436 22.9989 45.5191 23.1148 49.2791 25.6096C50.7801 26.6055 51.8372 27.5838 52.4901 28.5843C52.1957 29.1241 51.8748 29.6908 51.5274 30.2845ZM53.6822 26.1712C52.7769 25.1821 51.7467 24.315 50.6175 23.5918C47.5372 21.5483 44.9866 20.3001 42.5566 20.8546C41.1575 21.1735 39.9504 22.0958 38.9636 23.5989C39.2406 21.9013 40.1594 19.9002 42.0161 16.7781C42.7022 15.6245 43.451 14.9691 44.3055 14.7743C45.2532 14.5576 46.7287 14.6735 50.4888 17.1682C54.7589 20.0012 55.2796 22.4176 53.6822 26.1712ZM63.5312 31.4878C62.551 33.1361 61.0745 34.0817 59.4805 34.0817C57.8865 34.0817 56.41 33.1361 55.4298 31.4878C55.0877 30.9126 54.791 30.4 54.5264 29.9269C54.6729 29.6623 54.8149 29.4004 54.9524 29.141C54.9622 29.1223 54.9716 29.1032 54.9804 29.084C55.0393 28.9721 55.0972 28.8606 55.154 28.7494L55.2145 28.8147C55.4994 28.5385 55.8377 28.3236 56.2087 28.183C57.9151 27.5612 60.3332 28.9235 62.6919 30.4885C63.0506 30.7266 63.3863 30.9657 63.6988 31.206L63.5312 31.4878ZM64.9405 29.1085C64.6523 28.8943 64.3492 28.6816 64.0312 28.4705C61.68 26.9105 59.0091 25.3261 56.4697 25.6448C56.6756 25.0026 56.8182 24.3418 56.8953 23.6718C56.958 23.1108 56.9588 22.5447 56.8977 21.9835C58.5334 21.8588 60.6353 23.0691 62.6922 24.4338C64.193 25.4298 65.2503 26.4079 65.9032 27.4086C65.6088 27.9483 65.2879 28.5149 64.9405 29.1085V29.1085ZM67.0953 24.9954C66.1902 24.0063 65.1601 23.1391 64.0312 22.4158C61.5963 20.8002 58.8187 19.1587 56.199 19.6315C55.75 18.7581 55.1648 17.9618 54.4654 17.2725C54.7451 16.7695 55.0629 16.2194 55.4298 15.6023C56.1159 14.4486 56.8646 13.7932 57.719 13.5983C58.6671 13.3823 60.1426 13.4975 63.9024 15.9924C68.1719 18.8252 68.6927 21.2418 67.0953 24.9954V24.9954ZM82.7225 51.7377L84.2967 59.8444L82.1791 60.2178L80.9212 53.0914L80.4956 50.6773L82.4482 50.333L82.7225 51.7377ZM74.14 7.532L81.9876 47.9555L80.0755 48.2926L78.8139 41.1375L72.9257 7.74589L74.14 7.532ZM69.3291 8.37966L70.542 8.16578L76.4301 41.5574L77.6916 48.7125L75.7797 49.0498L69.3291 8.37966ZM77.6767 61.0108L76.8572 55.8443L76.1587 51.4415L78.1114 51.0971L78.7408 54.6661L79.7935 60.6375L77.6767 61.0108ZM79.9532 75.3648L78.056 63.4032L80.2148 63.0226L82.3176 74.9479L79.9532 75.3648Z" fill="black"/>
</g>
<defs>
<clipPath id="clip0">
<rect width="100" height="58.3333" fill="white" transform="translate(0 4.16663)"/>
</clipPath>
<clipPath id="clip1">
<rect width="80" height="80" fill="white" transform="translate(13.3333)"/>
</clipPath>
</defs>
</svg>