<svg width="100" height="80" viewBox="0 0 100 80" fill="none" xmlns="http://www.w3.org/2000/svg">
<g opacity="0.05" clip-path="url(#clip0)">
<path d="M116.769 6.4165L116 5.12875L116.769 6.4165ZM-0.769217 5.45426L2.99752 7.70426L4.53596 5.12875L0.769217 2.87875L-0.769217 5.45426ZM117.538 7.70426L121.305 5.45426L119.767 2.87875L116 5.12875L117.538 7.70426ZM108.466 7.70426C111.26 9.37305 114.744 9.37305 117.538 7.70426L116 5.12875C114.154 6.23155 111.851 6.23155 110.005 5.12875L108.466 7.70426ZM93.3993 7.70426C96.1931 9.37305 99.6775 9.37305 102.471 7.70426L100.933 5.12875C99.0866 6.23155 96.784 6.23155 94.9378 5.12875L93.3993 7.70426ZM102.471 7.70426C104.317 6.60146 106.62 6.60146 108.466 7.70426L110.005 5.12875C107.211 3.45996 103.727 3.45996 100.933 5.12875L102.471 7.70426ZM78.3324 7.70426C81.1261 9.37305 84.6105 9.37305 87.4043 7.70426L85.8658 5.12875C84.0196 6.23155 81.717 6.23155 79.8708 5.12875L78.3324 7.70426ZM63.2654 7.70426C66.0591 9.37305 69.5436 9.37305 72.3373 7.70426L70.7989 5.12875C68.9527 6.23155 66.65 6.23155 64.8038 5.12875L63.2654 7.70426ZM72.3373 7.70426C74.1835 6.60146 76.4861 6.60146 78.3324 7.70426L79.8708 5.12875C77.077 3.45996 73.5926 3.45996 70.7989 5.12875L72.3373 7.70426ZM87.4043 7.70426C89.2505 6.60146 91.5531 6.60146 93.3993 7.70426L94.9378 5.12875C92.144 3.45996 88.6596 3.45996 85.8658 5.12875L87.4043 7.70426ZM33.1315 7.70426C35.9252 9.37305 39.4096 9.37305 42.2034 7.70426L40.6649 5.12875C38.8187 6.23155 36.5161 6.23155 34.6699 5.12875L33.1315 7.70426ZM48.1984 7.70426C50.9922 9.37305 54.4766 9.37305 57.2703 7.70426L55.7319 5.12875C53.8857 6.23155 51.5831 6.23155 49.7369 5.12875L48.1984 7.70426ZM49.7369 5.12875C46.9431 3.45996 43.4587 3.45996 40.6649 5.12875L42.2034 7.70426C44.0496 6.60146 46.3522 6.60146 48.1984 7.70426L49.7369 5.12875ZM18.0645 7.70426C20.8582 9.37305 24.3427 9.37305 27.1364 7.70426L25.598 5.12875C23.7518 6.23155 21.4491 6.23155 19.6029 5.12875L18.0645 7.70426ZM2.99752 7.70426C5.79127 9.37305 9.2757 9.37305 12.0694 7.70426L10.531 5.12875C8.6848 6.23155 6.38216 6.23155 4.53596 5.12875L2.99752 7.70426ZM12.0694 7.70426C13.9156 6.60146 16.2183 6.60146 18.0645 7.70426L19.6029 5.12875C16.8092 3.45996 13.3247 3.45996 10.531 5.12875L12.0694 7.70426ZM27.1364 7.70426C28.9826 6.60146 31.2853 6.60146 33.1315 7.70426L34.6699 5.12875C31.8761 3.45996 28.3917 3.45996 25.598 5.12875L27.1364 7.70426ZM57.2703 7.70426C59.1165 6.60146 61.4192 6.60146 63.2654 7.70426L64.8038 5.12875C62.0101 3.45996 58.5256 3.45996 55.7319 5.12875L57.2703 7.70426Z" fill="#1D1D1B"/>
<path d="M116.769 24.4165L116 23.1288L116.769 24.4165ZM-0.769217 23.4543L2.99752 25.7043L4.53596 23.1288L0.769217 20.8788L-0.769217 23.4543ZM117.538 25.7043L121.305 23.4543L119.767 20.8788L116 23.1288L117.538 25.7043ZM108.466 25.7043C111.26 27.373 114.744 27.373 117.538 25.7043L116 23.1288C114.154 24.2315 111.851 24.2315 110.005 23.1288L108.466 25.7043ZM93.3993 25.7043C96.1931 27.373 99.6775 27.373 102.471 25.7043L100.933 23.1288C99.0866 24.2315 96.784 24.2315 94.9377 23.1288L93.3993 25.7043ZM102.471 25.7043C104.317 24.6015 106.62 24.6015 108.466 25.7043L110.005 23.1288C107.211 21.46 103.727 21.46 100.933 23.1288L102.471 25.7043ZM78.3324 25.7043C81.1261 27.373 84.6105 27.373 87.4043 25.7043L85.8658 23.1288C84.0196 24.2315 81.717 24.2315 79.8708 23.1288L78.3324 25.7043ZM63.2654 25.7043C66.0591 27.373 69.5436 27.373 72.3373 25.7043L70.7989 23.1288C68.9527 24.2315 66.65 24.2315 64.8038 23.1288L63.2654 25.7043ZM72.3373 25.7043C74.1835 24.6015 76.4861 24.6015 78.3324 25.7043L79.8708 23.1288C77.077 21.46 73.5926 21.46 70.7989 23.1288L72.3373 25.7043ZM87.4043 25.7043C89.2505 24.6015 91.5531 24.6015 93.3993 25.7043L94.9377 23.1288C92.144 21.46 88.6596 21.46 85.8658 23.1288L87.4043 25.7043ZM33.1315 25.7043C35.9252 27.373 39.4096 27.373 42.2034 25.7043L40.6649 23.1288C38.8187 24.2315 36.5161 24.2315 34.6699 23.1288L33.1315 25.7043ZM48.1984 25.7043C50.9922 27.373 54.4766 27.373 57.2703 25.7043L55.7319 23.1288C53.8857 24.2315 51.5831 24.2315 49.7369 23.1288L48.1984 25.7043ZM49.7369 23.1288C46.9431 21.46 43.4587 21.46 40.6649 23.1288L42.2034 25.7043C44.0496 24.6015 46.3522 24.6015 48.1984 25.7043L49.7369 23.1288ZM18.0645 25.7043C20.8582 27.373 24.3427 27.373 27.1364 25.7043L25.598 23.1288C23.7518 24.2315 21.4491 24.2315 19.6029 23.1288L18.0645 25.7043ZM2.99752 25.7043C5.79126 27.373 9.2757 27.373 12.0694 25.7043L10.531 23.1288C8.6848 24.2315 6.38216 24.2315 4.53596 23.1288L2.99752 25.7043ZM12.0694 25.7043C13.9156 24.6015 16.2183 24.6015 18.0645 25.7043L19.6029 23.1288C16.8092 21.46 13.3247 21.46 10.531 23.1288L12.0694 25.7043ZM27.1364 25.7043C28.9826 24.6015 31.2852 24.6015 33.1315 25.7043L34.6699 23.1288C31.8761 21.46 28.3917 21.46 25.598 23.1288L27.1364 25.7043ZM57.2703 25.7043C59.1165 24.6015 61.4192 24.6015 63.2654 25.7043L64.8038 23.1288C62.0101 21.46 58.5256 21.46 55.7319 23.1288L57.2703 25.7043Z" fill="#1D1D1B"/>
<path d="M116.769 42.4165L116 41.1288L116.769 42.4165ZM-0.769217 41.4543L2.99752 43.7043L4.53596 41.1288L0.769217 38.8788L-0.769217 41.4543ZM117.538 43.7043L121.305 41.4543L119.767 38.8788L116 41.1288L117.538 43.7043ZM108.466 43.7043C111.26 45.373 114.744 45.373 117.538 43.7043L116 41.1288C114.154 42.2316 111.851 42.2316 110.005 41.1288L108.466 43.7043ZM93.3993 43.7043C96.1931 45.373 99.6775 45.373 102.471 43.7043L100.933 41.1288C99.0866 42.2316 96.784 42.2316 94.9377 41.1288L93.3993 43.7043ZM102.471 43.7043C104.317 42.6015 106.62 42.6015 108.466 43.7043L110.005 41.1288C107.211 39.46 103.727 39.46 100.933 41.1288L102.471 43.7043ZM78.3324 43.7043C81.1261 45.373 84.6105 45.373 87.4043 43.7043L85.8658 41.1288C84.0196 42.2316 81.717 42.2316 79.8708 41.1288L78.3324 43.7043ZM63.2654 43.7043C66.0591 45.373 69.5436 45.373 72.3373 43.7043L70.7989 41.1288C68.9527 42.2316 66.65 42.2316 64.8038 41.1288L63.2654 43.7043ZM72.3373 43.7043C74.1835 42.6015 76.4861 42.6015 78.3324 43.7043L79.8708 41.1288C77.077 39.46 73.5926 39.46 70.7989 41.1288L72.3373 43.7043ZM87.4043 43.7043C89.2505 42.6015 91.5531 42.6015 93.3993 43.7043L94.9377 41.1288C92.144 39.46 88.6596 39.46 85.8658 41.1288L87.4043 43.7043ZM33.1315 43.7043C35.9252 45.373 39.4096 45.373 42.2034 43.7043L40.6649 41.1288C38.8187 42.2316 36.5161 42.2316 34.6699 41.1288L33.1315 43.7043ZM48.1984 43.7043C50.9922 45.373 54.4766 45.373 57.2703 43.7043L55.7319 41.1288C53.8857 42.2316 51.5831 42.2316 49.7369 41.1288L48.1984 43.7043ZM49.7369 41.1288C46.9431 39.46 43.4587 39.46 40.6649 41.1288L42.2034 43.7043C44.0496 42.6015 46.3522 42.6015 48.1984 43.7043L49.7369 41.1288ZM18.0645 43.7043C20.8582 45.373 24.3427 45.373 27.1364 43.7043L25.598 41.1288C23.7518 42.2316 21.4491 42.2316 19.6029 41.1288L18.0645 43.7043ZM2.99752 43.7043C5.79127 45.3731 9.2757 45.373 12.0694 43.7043L10.531 41.1288C8.6848 42.2316 6.38216 42.2316 4.53596 41.1288L2.99752 43.7043ZM12.0694 43.7043C13.9156 42.6015 16.2183 42.6015 18.0645 43.7043L19.6029 41.1288C16.8092 39.46 13.3247 39.46 10.531 41.1288L12.0694 43.7043ZM27.1364 43.7043C28.9826 42.6015 31.2852 42.6015 33.1315 43.7043L34.6699 41.1288C31.8761 39.46 28.3917 39.46 25.598 41.1288L27.1364 43.7043ZM57.2703 43.7043C59.1165 42.6015 61.4192 42.6015 63.2654 43.7043L64.8038 41.1288C62.0101 39.46 58.5256 39.46 55.7319 41.1288L57.2703 43.7043Z" fill="#1D1D1B"/>
<path d="M116.769 60.4165L116 59.1288L116.769 60.4165ZM-0.769217 59.4543L2.99752 61.7043L4.53596 59.1288L0.769217 56.8788L-0.769217 59.4543ZM117.538 61.7043L121.305 59.4543L119.767 56.8788L116 59.1288L117.538 61.7043ZM108.466 61.7043C111.26 63.373 114.744 63.373 117.538 61.7043L116 59.1288C114.154 60.2316 111.851 60.2316 110.005 59.1288L108.466 61.7043ZM93.3993 61.7043C96.1931 63.373 99.6775 63.373 102.471 61.7043L100.933 59.1288C99.0866 60.2316 96.784 60.2316 94.9377 59.1288L93.3993 61.7043ZM102.471 61.7043C104.317 60.6015 106.62 60.6015 108.466 61.7043L110.005 59.1288C107.211 57.46 103.727 57.46 100.933 59.1288L102.471 61.7043ZM78.3324 61.7043C81.1261 63.373 84.6105 63.373 87.4043 61.7043L85.8658 59.1288C84.0196 60.2316 81.717 60.2316 79.8708 59.1288L78.3324 61.7043ZM63.2654 61.7043C66.0591 63.373 69.5436 63.373 72.3373 61.7043L70.7989 59.1288C68.9527 60.2316 66.65 60.2316 64.8038 59.1288L63.2654 61.7043ZM72.3373 61.7043C74.1835 60.6015 76.4861 60.6015 78.3324 61.7043L79.8708 59.1288C77.077 57.46 73.5926 57.46 70.7989 59.1288L72.3373 61.7043ZM87.4043 61.7043C89.2505 60.6015 91.5531 60.6015 93.3993 61.7043L94.9377 59.1288C92.144 57.46 88.6596 57.46 85.8658 59.1288L87.4043 61.7043ZM33.1315 61.7043C35.9252 63.373 39.4096 63.373 42.2034 61.7043L40.6649 59.1288C38.8187 60.2316 36.5161 60.2316 34.6699 59.1288L33.1315 61.7043ZM48.1984 61.7043C50.9922 63.373 54.4766 63.373 57.2703 61.7043L55.7319 59.1288C53.8857 60.2316 51.5831 60.2316 49.7369 59.1288L48.1984 61.7043ZM49.7369 59.1288C46.9431 57.46 43.4587 57.46 40.6649 59.1288L42.2034 61.7043C44.0496 60.6015 46.3522 60.6015 48.1984 61.7043L49.7369 59.1288ZM18.0645 61.7043C20.8582 63.373 24.3427 63.373 27.1364 61.7043L25.598 59.1288C23.7518 60.2316 21.4491 60.2316 19.6029 59.1288L18.0645 61.7043ZM2.99752 61.7043C5.79127 63.3731 9.2757 63.373 12.0694 61.7043L10.531 59.1288C8.6848 60.2316 6.38216 60.2316 4.53596 59.1288L2.99752 61.7043ZM12.0694 61.7043C13.9156 60.6015 16.2183 60.6015 18.0645 61.7043L19.6029 59.1288C16.8092 57.46 13.3247 57.46 10.531 59.1288L12.0694 61.7043ZM27.1364 61.7043C28.9826 60.6015 31.2852 60.6015 33.1315 61.7043L34.6699 59.1288C31.8761 57.46 28.3917 57.46 25.598 59.1288L27.1364 61.7043ZM57.2703 61.7043C59.1165 60.6015 61.4192 60.6015 63.2654 61.7043L64.8038 59.1288C62.0101 57.46 58.5256 57.46 55.7319 59.1288L57.2703 61.7043Z" fill="#1D1D1B"/>
</g>
<g clip-path="url(#clip1)">
<path d="M104.958 10H99.3333V13H104.958C105.058 13 105.153 13.0395 105.224 13.1098C105.294 13.1802 105.333 13.2755 105.333 13.375V19H42.3333V13.375C42.3333 13.2755 42.3728 13.1802 42.4432 13.1098C42.5135 13.0395 42.6089 13 42.7083 13H96.3333V10H42.7083C41.8135 10.001 40.9557 10.357 40.323 10.9897C39.6903 11.6224 39.3344 12.4802 39.3333 13.375V40H42.3333V31H105.333V51.625C105.333 51.7245 105.294 51.8198 105.224 51.8902C105.153 51.9605 105.058 52 104.958 52H90.3333V55H104.958C105.853 54.999 106.711 54.643 107.344 54.0103C107.976 53.3776 108.332 52.5198 108.333 51.625V13.375C108.332 12.4802 107.976 11.6224 107.344 10.9897C106.711 10.357 105.853 10.001 104.958 10ZM42.3333 28V22H105.333V28H42.3333Z" fill="#E11F1D"/>
<path d="M87.3333 34H90.3333V37H87.3333V34Z" fill="black"/>
<path d="M51.3333 52H69.3333V55H51.3333V52Z" fill="black"/>
<path d="M72.3333 52H81.3333V55H72.3333V52Z" fill="black"/>
<path d="M51.3333 58H63.3333V61H51.3333V58Z" fill="black"/>
<path d="M66.3333 58H81.3333V61H66.3333V58Z" fill="black"/>
<path d="M83.9583 43H21.7083C20.8135 43.001 19.9557 43.357 19.323 43.9897C18.6903 44.6224 18.3344 45.4802 18.3333 46.375V62.5H21.3333V46.375C21.3333 46.2755 21.3728 46.1802 21.4432 46.1098C21.5135 46.0395 21.6089 46 21.7083 46H83.9583C84.0578 46 84.1532 46.0395 84.2235 46.1098C84.2938 46.1802 84.3333 46.2755 84.3333 46.375V84.625C84.3333 84.7245 84.2938 84.8198 84.2235 84.8902C84.1532 84.9605 84.0578 85 83.9583 85H21.7083C21.6089 85 21.5135 84.9605 21.4432 84.8902C21.3728 84.8198 21.3333 84.7245 21.3333 84.625V65.5H18.3333V84.625C18.3344 85.5198 18.6903 86.3776 19.323 87.0103C19.9557 87.643 20.8135 87.999 21.7083 88H83.9583C84.8531 87.999 85.711 87.643 86.3437 87.0103C86.9764 86.3776 87.3323 85.5198 87.3333 84.625V46.375C87.3323 45.4802 86.9764 44.6224 86.3437 43.9897C85.711 43.357 84.8531 43.001 83.9583 43Z" fill="black"/>
<path d="M24.3333 70H33.3333V73H24.3333V70Z" fill="black"/>
<path d="M36.3333 70H45.3333V73H36.3333V70Z" fill="black"/>
<path d="M48.3333 70H57.3333V73H48.3333V70Z" fill="black"/>
<path d="M60.3333 70H69.3333V73H60.3333V70Z" fill="black"/>
<path d="M72.3333 70H81.3333V73H72.3333V70Z" fill="black"/>
<path d="M24.3333 77.5H37.8333V80.5H24.3333V77.5Z" fill="black"/>
<path d="M40.8333 77.5H48.3333V80.5H40.8333V77.5Z" fill="black"/>
<path d="M25.8333 65.5H46.8333C47.2312 65.5 47.6127 65.342 47.894 65.0607C48.1753 64.7794 48.3333 64.3978 48.3333 64V52C48.3333 51.6022 48.1753 51.2206 47.894 50.9393C47.6127 50.658 47.2312 50.5 46.8333 50.5H25.8333C25.4355 50.5 25.054 50.658 24.7727 50.9393C24.4914 51.2206 24.3333 51.6022 24.3333 52V64C24.3333 64.3978 24.4914 64.7794 24.7727 65.0607C25.054 65.342 25.4355 65.5 25.8333 65.5ZM27.3333 59.5H29.1622L29.9122 62.5H27.3333V59.5ZM42.7545 62.5L43.5045 59.5H45.3333V62.5H42.7545ZM45.3333 56.5H43.5045L42.7545 53.5H45.3333V56.5ZM39.6622 53.5L40.7872 58L39.6622 62.5H33.0045L31.8795 58L33.0045 53.5H39.6622ZM29.9122 53.5L29.1622 56.5H27.3333V53.5H29.9122Z" fill="black"/>
</g>
<defs>
<clipPath id="clip0">
<rect width="100" height="58.3333" fill="white" transform="translate(0 4.1665)"/>
</clipPath>
<clipPath id="clip1">
<rect width="80" height="80" fill="white" transform="translate(13.3333)"/>
</clipPath>
</defs>
</svg>
