<svg width="100" height="80" viewBox="0 0 100 80" fill="none" xmlns="http://www.w3.org/2000/svg">
<g opacity="0.05" clip-path="url(#clip0)">
<path d="M116.769 6.4165L116 5.12875L116.769 6.4165ZM-0.769217 5.45426L2.99752 7.70426L4.53596 5.12875L0.769217 2.87875L-0.769217 5.45426ZM117.538 7.70426L121.305 5.45426L119.767 2.87875L116 5.12875L117.538 7.70426ZM108.466 7.70426C111.26 9.37305 114.744 9.37305 117.538 7.70426L116 5.12875C114.154 6.23155 111.851 6.23155 110.005 5.12875L108.466 7.70426ZM93.3993 7.70426C96.1931 9.37305 99.6775 9.37305 102.471 7.70426L100.933 5.12875C99.0866 6.23155 96.784 6.23155 94.9378 5.12875L93.3993 7.70426ZM102.471 7.70426C104.317 6.60146 106.62 6.60146 108.466 7.70426L110.005 5.12875C107.211 3.45996 103.727 3.45996 100.933 5.12875L102.471 7.70426ZM78.3324 7.70426C81.1261 9.37305 84.6105 9.37305 87.4043 7.70426L85.8658 5.12875C84.0196 6.23155 81.717 6.23155 79.8708 5.12875L78.3324 7.70426ZM63.2654 7.70426C66.0591 9.37305 69.5436 9.37305 72.3373 7.70426L70.7989 5.12875C68.9527 6.23155 66.65 6.23155 64.8038 5.12875L63.2654 7.70426ZM72.3373 7.70426C74.1835 6.60146 76.4861 6.60146 78.3324 7.70426L79.8708 5.12875C77.077 3.45996 73.5926 3.45996 70.7989 5.12875L72.3373 7.70426ZM87.4043 7.70426C89.2505 6.60146 91.5531 6.60146 93.3993 7.70426L94.9378 5.12875C92.144 3.45996 88.6596 3.45996 85.8658 5.12875L87.4043 7.70426ZM33.1315 7.70426C35.9252 9.37305 39.4096 9.37305 42.2034 7.70426L40.6649 5.12875C38.8187 6.23155 36.5161 6.23155 34.6699 5.12875L33.1315 7.70426ZM48.1984 7.70426C50.9922 9.37305 54.4766 9.37305 57.2703 7.70426L55.7319 5.12875C53.8857 6.23155 51.5831 6.23155 49.7369 5.12875L48.1984 7.70426ZM49.7369 5.12875C46.9431 3.45996 43.4587 3.45996 40.6649 5.12875L42.2034 7.70426C44.0496 6.60146 46.3522 6.60146 48.1984 7.70426L49.7369 5.12875ZM18.0645 7.70426C20.8582 9.37305 24.3427 9.37305 27.1364 7.70426L25.598 5.12875C23.7518 6.23155 21.4491 6.23155 19.6029 5.12875L18.0645 7.70426ZM2.99752 7.70426C5.79127 9.37305 9.2757 9.37305 12.0694 7.70426L10.531 5.12875C8.6848 6.23155 6.38216 6.23155 4.53596 5.12875L2.99752 7.70426ZM12.0694 7.70426C13.9156 6.60146 16.2183 6.60146 18.0645 7.70426L19.6029 5.12875C16.8092 3.45996 13.3247 3.45996 10.531 5.12875L12.0694 7.70426ZM27.1364 7.70426C28.9826 6.60146 31.2853 6.60146 33.1315 7.70426L34.6699 5.12875C31.8761 3.45996 28.3917 3.45996 25.598 5.12875L27.1364 7.70426ZM57.2703 7.70426C59.1165 6.60146 61.4192 6.60146 63.2654 7.70426L64.8038 5.12875C62.0101 3.45996 58.5256 3.45996 55.7319 5.12875L57.2703 7.70426Z" fill="#1D1D1B"/>
<path d="M116.769 24.4165L116 23.1288L116.769 24.4165ZM-0.769217 23.4543L2.99752 25.7043L4.53596 23.1288L0.769217 20.8788L-0.769217 23.4543ZM117.538 25.7043L121.305 23.4543L119.767 20.8788L116 23.1288L117.538 25.7043ZM108.466 25.7043C111.26 27.373 114.744 27.373 117.538 25.7043L116 23.1288C114.154 24.2315 111.851 24.2315 110.005 23.1288L108.466 25.7043ZM93.3993 25.7043C96.1931 27.373 99.6775 27.373 102.471 25.7043L100.933 23.1288C99.0866 24.2315 96.784 24.2315 94.9377 23.1288L93.3993 25.7043ZM102.471 25.7043C104.317 24.6015 106.62 24.6015 108.466 25.7043L110.005 23.1288C107.211 21.46 103.727 21.46 100.933 23.1288L102.471 25.7043ZM78.3324 25.7043C81.1261 27.373 84.6105 27.373 87.4043 25.7043L85.8658 23.1288C84.0196 24.2315 81.717 24.2315 79.8708 23.1288L78.3324 25.7043ZM63.2654 25.7043C66.0591 27.373 69.5436 27.373 72.3373 25.7043L70.7989 23.1288C68.9527 24.2315 66.65 24.2315 64.8038 23.1288L63.2654 25.7043ZM72.3373 25.7043C74.1835 24.6015 76.4861 24.6015 78.3324 25.7043L79.8708 23.1288C77.077 21.46 73.5926 21.46 70.7989 23.1288L72.3373 25.7043ZM87.4043 25.7043C89.2505 24.6015 91.5531 24.6015 93.3993 25.7043L94.9377 23.1288C92.144 21.46 88.6596 21.46 85.8658 23.1288L87.4043 25.7043ZM33.1315 25.7043C35.9252 27.373 39.4096 27.373 42.2034 25.7043L40.6649 23.1288C38.8187 24.2315 36.5161 24.2315 34.6699 23.1288L33.1315 25.7043ZM48.1984 25.7043C50.9922 27.373 54.4766 27.373 57.2703 25.7043L55.7319 23.1288C53.8857 24.2315 51.5831 24.2315 49.7369 23.1288L48.1984 25.7043ZM49.7369 23.1288C46.9431 21.46 43.4587 21.46 40.6649 23.1288L42.2034 25.7043C44.0496 24.6015 46.3522 24.6015 48.1984 25.7043L49.7369 23.1288ZM18.0645 25.7043C20.8582 27.373 24.3427 27.373 27.1364 25.7043L25.598 23.1288C23.7518 24.2315 21.4491 24.2315 19.6029 23.1288L18.0645 25.7043ZM2.99752 25.7043C5.79126 27.373 9.2757 27.373 12.0694 25.7043L10.531 23.1288C8.6848 24.2315 6.38216 24.2315 4.53596 23.1288L2.99752 25.7043ZM12.0694 25.7043C13.9156 24.6015 16.2183 24.6015 18.0645 25.7043L19.6029 23.1288C16.8092 21.46 13.3247 21.46 10.531 23.1288L12.0694 25.7043ZM27.1364 25.7043C28.9826 24.6015 31.2852 24.6015 33.1315 25.7043L34.6699 23.1288C31.8761 21.46 28.3917 21.46 25.598 23.1288L27.1364 25.7043ZM57.2703 25.7043C59.1165 24.6015 61.4192 24.6015 63.2654 25.7043L64.8038 23.1288C62.0101 21.46 58.5256 21.46 55.7319 23.1288L57.2703 25.7043Z" fill="#1D1D1B"/>
<path d="M116.769 42.4165L116 41.1288L116.769 42.4165ZM-0.769217 41.4543L2.99752 43.7043L4.53596 41.1288L0.769217 38.8788L-0.769217 41.4543ZM117.538 43.7043L121.305 41.4543L119.767 38.8788L116 41.1288L117.538 43.7043ZM108.466 43.7043C111.26 45.373 114.744 45.373 117.538 43.7043L116 41.1288C114.154 42.2316 111.851 42.2316 110.005 41.1288L108.466 43.7043ZM93.3993 43.7043C96.1931 45.373 99.6775 45.373 102.471 43.7043L100.933 41.1288C99.0866 42.2316 96.784 42.2316 94.9377 41.1288L93.3993 43.7043ZM102.471 43.7043C104.317 42.6015 106.62 42.6015 108.466 43.7043L110.005 41.1288C107.211 39.46 103.727 39.46 100.933 41.1288L102.471 43.7043ZM78.3324 43.7043C81.1261 45.373 84.6105 45.373 87.4043 43.7043L85.8658 41.1288C84.0196 42.2316 81.717 42.2316 79.8708 41.1288L78.3324 43.7043ZM63.2654 43.7043C66.0591 45.373 69.5436 45.373 72.3373 43.7043L70.7989 41.1288C68.9527 42.2316 66.65 42.2316 64.8038 41.1288L63.2654 43.7043ZM72.3373 43.7043C74.1835 42.6015 76.4861 42.6015 78.3324 43.7043L79.8708 41.1288C77.077 39.46 73.5926 39.46 70.7989 41.1288L72.3373 43.7043ZM87.4043 43.7043C89.2505 42.6015 91.5531 42.6015 93.3993 43.7043L94.9377 41.1288C92.144 39.46 88.6596 39.46 85.8658 41.1288L87.4043 43.7043ZM33.1315 43.7043C35.9252 45.373 39.4096 45.373 42.2034 43.7043L40.6649 41.1288C38.8187 42.2316 36.5161 42.2316 34.6699 41.1288L33.1315 43.7043ZM48.1984 43.7043C50.9922 45.373 54.4766 45.373 57.2703 43.7043L55.7319 41.1288C53.8857 42.2316 51.5831 42.2316 49.7369 41.1288L48.1984 43.7043ZM49.7369 41.1288C46.9431 39.46 43.4587 39.46 40.6649 41.1288L42.2034 43.7043C44.0496 42.6015 46.3522 42.6015 48.1984 43.7043L49.7369 41.1288ZM18.0645 43.7043C20.8582 45.373 24.3427 45.373 27.1364 43.7043L25.598 41.1288C23.7518 42.2316 21.4491 42.2316 19.6029 41.1288L18.0645 43.7043ZM2.99752 43.7043C5.79127 45.3731 9.2757 45.373 12.0694 43.7043L10.531 41.1288C8.6848 42.2316 6.38216 42.2316 4.53596 41.1288L2.99752 43.7043ZM12.0694 43.7043C13.9156 42.6015 16.2183 42.6015 18.0645 43.7043L19.6029 41.1288C16.8092 39.46 13.3247 39.46 10.531 41.1288L12.0694 43.7043ZM27.1364 43.7043C28.9826 42.6015 31.2852 42.6015 33.1315 43.7043L34.6699 41.1288C31.8761 39.46 28.3917 39.46 25.598 41.1288L27.1364 43.7043ZM57.2703 43.7043C59.1165 42.6015 61.4192 42.6015 63.2654 43.7043L64.8038 41.1288C62.0101 39.46 58.5256 39.46 55.7319 41.1288L57.2703 43.7043Z" fill="#1D1D1B"/>
<path d="M116.769 60.4165L116 59.1288L116.769 60.4165ZM-0.769217 59.4543L2.99752 61.7043L4.53596 59.1288L0.769217 56.8788L-0.769217 59.4543ZM117.538 61.7043L121.305 59.4543L119.767 56.8788L116 59.1288L117.538 61.7043ZM108.466 61.7043C111.26 63.373 114.744 63.373 117.538 61.7043L116 59.1288C114.154 60.2316 111.851 60.2316 110.005 59.1288L108.466 61.7043ZM93.3993 61.7043C96.1931 63.373 99.6775 63.373 102.471 61.7043L100.933 59.1288C99.0866 60.2316 96.784 60.2316 94.9377 59.1288L93.3993 61.7043ZM102.471 61.7043C104.317 60.6015 106.62 60.6015 108.466 61.7043L110.005 59.1288C107.211 57.46 103.727 57.46 100.933 59.1288L102.471 61.7043ZM78.3324 61.7043C81.1261 63.373 84.6105 63.373 87.4043 61.7043L85.8658 59.1288C84.0196 60.2316 81.717 60.2316 79.8708 59.1288L78.3324 61.7043ZM63.2654 61.7043C66.0591 63.373 69.5436 63.373 72.3373 61.7043L70.7989 59.1288C68.9527 60.2316 66.65 60.2316 64.8038 59.1288L63.2654 61.7043ZM72.3373 61.7043C74.1835 60.6015 76.4861 60.6015 78.3324 61.7043L79.8708 59.1288C77.077 57.46 73.5926 57.46 70.7989 59.1288L72.3373 61.7043ZM87.4043 61.7043C89.2505 60.6015 91.5531 60.6015 93.3993 61.7043L94.9377 59.1288C92.144 57.46 88.6596 57.46 85.8658 59.1288L87.4043 61.7043ZM33.1315 61.7043C35.9252 63.373 39.4096 63.373 42.2034 61.7043L40.6649 59.1288C38.8187 60.2316 36.5161 60.2316 34.6699 59.1288L33.1315 61.7043ZM48.1984 61.7043C50.9922 63.373 54.4766 63.373 57.2703 61.7043L55.7319 59.1288C53.8857 60.2316 51.5831 60.2316 49.7369 59.1288L48.1984 61.7043ZM49.7369 59.1288C46.9431 57.46 43.4587 57.46 40.6649 59.1288L42.2034 61.7043C44.0496 60.6015 46.3522 60.6015 48.1984 61.7043L49.7369 59.1288ZM18.0645 61.7043C20.8582 63.373 24.3427 63.373 27.1364 61.7043L25.598 59.1288C23.7518 60.2316 21.4491 60.2316 19.6029 59.1288L18.0645 61.7043ZM2.99752 61.7043C5.79127 63.3731 9.2757 63.373 12.0694 61.7043L10.531 59.1288C8.6848 60.2316 6.38216 60.2316 4.53596 59.1288L2.99752 61.7043ZM12.0694 61.7043C13.9156 60.6015 16.2183 60.6015 18.0645 61.7043L19.6029 59.1288C16.8092 57.46 13.3247 57.46 10.531 59.1288L12.0694 61.7043ZM27.1364 61.7043C28.9826 60.6015 31.2852 60.6015 33.1315 61.7043L34.6699 59.1288C31.8761 57.46 28.3917 57.46 25.598 59.1288L27.1364 61.7043ZM57.2703 61.7043C59.1165 60.6015 61.4192 60.6015 63.2654 61.7043L64.8038 59.1288C62.0101 57.46 58.5256 57.46 55.7319 59.1288L57.2703 61.7043Z" fill="#1D1D1B"/>
</g>
<path d="M89.6632 11.121C89.9803 11.1007 90.2777 10.9604 90.4951 10.7287C90.7124 10.497 90.8334 10.1912 90.8334 9.87349V3.77974C90.8334 3.60497 90.7967 3.43214 90.7258 3.27242C90.6548 3.11269 90.5512 2.96962 90.4215 2.85243C90.2919 2.73524 90.1391 2.64654 89.973 2.59207C89.807 2.53759 89.6313 2.51854 89.4574 2.53615L80.7074 3.42208L80.9593 5.90943L88.3334 5.16255V8.70099L51.634 11.0511L52.016 8.88443C52.0187 8.8688 52.0213 8.85411 52.0238 8.83896L78.4593 6.16224L78.2074 3.6749L51.7107 6.35786C51.3677 5.5823 50.8069 4.923 50.0965 4.46002C49.386 3.99704 48.5564 3.75029 47.7084 3.74974H39.054C38.0251 3.74849 37.0287 4.11044 36.2405 4.77182C35.4523 5.43319 34.9228 6.35155 34.7454 7.36505L34.6179 8.08864L28.6516 8.69271C27.8304 8.78707 27.0782 9.19754 26.5544 9.83711C26.0307 10.4767 25.7766 11.2951 25.846 12.1188C25.8998 12.7187 26.1253 13.2903 26.4955 13.7654C26.1255 14.24 25.9 14.8112 25.846 15.4107C25.7771 16.2359 26.0326 17.0556 26.5583 17.6955C27.084 18.3354 27.8385 18.7451 28.6615 18.8375L32.6509 19.2416L31.8796 23.615C31.7687 24.2442 31.7969 24.8901 31.9623 25.5072C32.1276 26.1243 32.4261 26.6977 32.8368 27.1871C33.2475 27.6765 33.7604 28.07 34.3394 28.34C34.9185 28.6099 35.5496 28.7498 36.1885 28.7497H44.8423C45.8712 28.751 46.8675 28.389 47.6557 27.7276C48.4438 27.0663 48.9733 26.1479 49.1507 25.1344L49.8821 20.9863L89.4574 24.9933C89.4991 24.9975 89.5411 24.9996 89.5834 24.9997C89.9149 24.9997 90.2328 24.868 90.4673 24.6336C90.7017 24.3992 90.8334 24.0813 90.8334 23.7497V17.656C90.8334 17.3383 90.7124 17.0325 90.4951 16.8008C90.2777 16.569 89.9803 16.4288 89.6632 16.4085L51.1246 13.9397L51.1871 13.5846L89.6632 11.121ZM49.1438 6.91958L49.1595 6.93771C48.2099 9.48059 46.637 11.7443 44.5851 13.5213L36.2927 12.9901L36.3829 12.4782C36.6074 12.4922 36.8322 12.4993 37.0574 12.4994C39.1014 12.4972 41.1015 11.9067 42.8189 10.7984C44.5363 9.69016 45.8983 8.11095 46.7424 6.24943H47.7084C47.9821 6.24927 48.2525 6.3092 48.5006 6.425C48.7486 6.5408 48.9682 6.70963 49.1438 6.91958ZM39.054 6.24974H43.9052C43.1691 7.39837 42.1563 8.34369 40.9597 8.99892C39.7631 9.65414 38.4211 9.99828 37.0568 9.99974C36.9777 9.99974 36.8988 9.99854 36.8201 9.99614L37.2074 7.79911C37.2835 7.36475 37.5104 6.97116 37.8482 6.68772C38.186 6.40427 38.613 6.24917 39.054 6.24974ZM28.9134 11.179L34.1663 10.6477L33.8959 12.1872L29.043 12.498C28.8711 12.5095 28.7015 12.4535 28.5701 12.3421C28.4387 12.2306 28.3558 12.0723 28.3391 11.9008C28.3224 11.7293 28.3731 11.5581 28.4805 11.4233C28.5879 11.2886 28.7435 11.2009 28.9145 11.179H28.9134ZM44.9484 20.4868C41.8519 22.8158 38.2061 24.305 34.3646 24.81C34.3052 24.5606 34.2976 24.3016 34.3423 24.0491L35.1454 19.4941L44.9484 20.4868ZM44.8423 26.2497H39.2451C42.1309 25.2985 44.8196 23.83 47.1796 21.916L46.6887 24.7004C46.6126 25.1347 46.3858 25.5283 46.048 25.8117C45.7102 26.0951 45.2832 26.2503 44.8423 26.2497ZM88.3334 22.3668L28.9241 16.3511C28.7553 16.3324 28.6001 16.2496 28.4906 16.1197C28.381 15.9898 28.3256 15.8229 28.3356 15.6533C28.3456 15.4837 28.4204 15.3244 28.5444 15.2083C28.6685 15.0923 28.8324 15.0283 29.0023 15.0296C29.0179 15.0296 29.0335 15.0296 29.0491 15.0313L88.3334 18.8279V22.3668ZM47.923 13.7352C48.2325 13.389 48.5285 13.0321 48.811 12.6647L48.6146 13.7794L47.923 13.7352Z" fill="#E11F1D"/>
<path d="M89.5867 64.9995H86.2708C86.4068 64.7749 86.5406 64.549 86.6721 64.3216C90.2502 58.1239 91.6656 51.5423 90.3661 47.1451C90.2753 46.8378 90.0699 46.5772 89.7924 46.4169C89.5149 46.2567 89.1864 46.2092 88.8749 46.2842C84.9474 47.2297 80.6258 50.8114 77.1742 55.9436C76.2248 55.7278 75.2372 55.7451 74.2958 55.9939L75.7699 47.6345C75.8809 47.0053 75.8527 46.3594 75.6873 45.7423C75.522 45.1251 75.2234 44.5516 74.8127 44.0622C74.402 43.5728 73.8891 43.1792 73.31 42.9093C72.7309 42.6393 72.0997 42.4994 71.4608 42.4995H62.8072C62.1411 42.5001 61.4839 42.6523 60.8853 42.9447C60.2862 42.6514 59.6279 42.4991 58.9608 42.4995H50.3072C49.2783 42.4983 48.282 42.8603 47.4938 43.5216C46.7057 44.183 46.1762 45.1013 45.9988 46.1148L44.4321 54.9995H28.8408C27.4865 53.0972 25.9121 51.3616 24.1503 49.8289L22.5232 51.7267C23.6714 52.7234 24.7305 53.8185 25.6882 54.9995H25.2955C25.1055 54.9995 24.9181 55.0428 24.7473 55.1261C24.5766 55.2094 24.4271 55.3305 24.3102 55.4802C24.1933 55.6299 24.112 55.8043 24.0726 55.9901C24.0332 56.176 24.0366 56.3684 24.0827 56.5526L25.695 63.002C25.8737 63.7191 26.1846 64.3965 26.6118 64.9995H23.3674C22.9491 64.3756 22.5466 63.7294 22.1669 63.0716C19.3103 58.1245 17.9211 52.8297 18.4377 49.1148C19.0432 49.3661 19.6276 49.6654 20.1853 50.0098L21.488 47.8761C20.3482 47.1576 19.1036 46.6206 17.7989 46.2842C17.4874 46.2092 17.1589 46.2567 16.8814 46.4169C16.6039 46.5772 16.3985 46.8378 16.3077 47.1451C15.0082 51.5423 16.4236 58.1239 20.0018 64.3216C20.133 64.5488 20.2668 64.7748 20.403 64.9995H17.0868C16.7552 64.9995 16.4373 65.1312 16.2029 65.3656C15.9684 65.6001 15.8368 65.918 15.8368 66.2495V68.1245C15.838 69.2845 16.2994 70.3965 17.1196 71.2167C17.9398 72.0369 19.0518 72.4982 20.2118 72.4995H20.8368V74.687C20.8376 75.4327 21.1342 76.1476 21.6614 76.6749C22.1887 77.2021 22.9036 77.4987 23.6493 77.4995H33.0243C33.7699 77.4987 34.4848 77.2021 35.012 76.6748C35.5393 76.1475 35.8359 75.4327 35.8368 74.687V72.4995H63.3367V69.9995H20.2118C19.7146 69.999 19.238 69.8013 18.8865 69.4498C18.535 69.0982 18.3373 68.6216 18.3368 68.1245V67.4995H88.3367V68.1245C88.3362 68.6216 88.1384 69.0982 87.7869 69.4497C87.4354 69.8012 86.9588 69.9989 86.4617 69.9995H65.8367V72.4995H70.8367V74.687C70.8376 75.4327 71.1342 76.1476 71.6614 76.6749C72.1887 77.2021 72.9036 77.4987 73.6492 77.4995H83.0242C83.7699 77.4987 84.4848 77.2021 85.012 76.6748C85.5393 76.1475 85.8359 75.4327 85.8367 74.687V72.4995H86.4617C87.6217 72.4982 88.7337 72.0368 89.5539 71.2167C90.3741 70.3965 90.8354 69.2844 90.8367 68.1245V66.2495C90.8367 65.918 90.705 65.6001 90.4706 65.3656C90.2362 65.1312 89.9183 64.9995 89.5867 64.9995ZM33.3368 72.4995V74.687C33.3368 74.7699 33.3038 74.8494 33.2452 74.908C33.1866 74.9666 33.1071 74.9995 33.0243 74.9995H23.6493C23.5664 74.9995 23.4869 74.9666 23.4283 74.908C23.3697 74.8494 23.3368 74.7699 23.3368 74.687V72.4995H33.3368ZM88.2355 49.1123C88.7528 52.8272 87.3638 58.1226 84.5064 63.0716C84.2668 63.4874 84.0182 63.8977 83.7607 64.3025L81.1474 59.0758C80.748 58.2735 80.1724 57.5719 79.4636 57.0234C82.1207 53.1745 85.3261 50.29 88.2355 49.1123ZM62.9999 64.9995C65.1345 64.2926 67.1648 63.3028 69.0364 62.0564L67.5641 64.9995H62.9999ZM45.9955 63.5076C46.0525 63.3426 46.1026 63.1741 46.1458 63.002L47.2371 58.6372C49.7522 58.3527 52.1844 57.5648 54.3887 56.3206C56.593 55.0764 58.5244 53.4013 60.0677 51.395L59.1533 56.5806C55.6835 60.3198 51.042 62.7634 45.9955 63.5076ZM71.6533 56.5806C68.6598 59.787 64.7992 62.0545 60.541 63.1075L61.3736 58.3858C65.8245 57.4879 69.8 55.0094 72.5653 51.4081L71.6533 56.5806ZM62.9144 44.9995H67.6586C66.606 46.6406 65.0004 47.8504 63.1327 48.4098L63.2694 47.6342C63.428 46.7404 63.3039 45.8195 62.9144 44.9995ZM72.8972 45.6694L72.9128 45.6875C72.0006 48.1194 70.5202 50.298 68.5951 52.0416C66.6699 53.7852 64.3559 55.0433 61.8458 55.7111L62.6613 51.0869C64.3629 50.7838 65.9653 50.0713 67.33 49.0108C68.6948 47.9503 69.7811 46.5736 70.495 44.9995H71.4608C71.7347 44.9992 72.0053 45.059 72.2535 45.1748C72.5017 45.2905 72.7214 45.4594 72.8972 45.6694ZM60.3972 45.6694C60.4022 45.6753 60.4072 45.6812 60.4121 45.6873C59.3997 48.37 57.6993 50.739 55.4817 52.5564C53.264 54.3738 50.6071 55.5757 47.7778 56.0412C47.7406 55.8208 47.6449 55.6144 47.5008 55.4435C47.3566 55.2726 47.1693 55.1435 46.9583 55.0697L47.6357 51.2283C47.8602 51.2423 48.085 51.2494 48.31 51.2495C50.354 51.2473 52.3541 50.6568 54.0715 49.5486C55.7889 48.4403 57.151 46.861 57.995 44.9995H58.9608C59.2347 44.9992 59.5053 45.059 59.7535 45.1748C60.0017 45.2905 60.2214 45.4594 60.3972 45.6694ZM50.3072 44.9995H55.1586C54.4225 46.1481 53.4096 47.0935 52.213 47.7487C51.0164 48.4039 49.6743 48.7481 48.31 48.7495C48.2312 48.7495 48.1523 48.7483 48.0733 48.7459L48.4608 46.5489C48.5368 46.1145 48.7637 45.721 49.1015 45.4375C49.4393 45.1541 49.8663 44.999 50.3072 44.9995ZM31.4553 64.9995C30.6885 65.0004 29.9434 64.7444 29.339 64.2725C28.7346 63.8005 28.3056 63.1398 28.1205 62.3956L26.8958 57.4995H44.9446L43.7205 62.3956C43.5353 63.1398 43.1063 63.8005 42.5019 64.2725C41.8974 64.7444 41.1524 65.0004 40.3855 64.9995H31.4553ZM50.5152 64.9995C53.3961 64.0511 56.0793 62.5837 58.4322 60.6697L57.9421 63.4509C57.8658 63.8851 57.6388 64.2785 57.301 64.5618C56.9633 64.8451 56.5363 65.0001 56.0955 64.9995H50.5152ZM70.3589 64.9995L72.7617 60.1937C73.0472 59.6227 73.4861 59.1425 74.0291 58.8069C74.5722 58.4713 75.198 58.2935 75.8364 58.2935C76.4747 58.2935 77.1005 58.4713 77.6436 58.8069C78.1866 59.1425 78.6255 59.6227 78.911 60.1937L81.3141 64.9995H70.3589ZM83.3364 74.687C83.3364 74.7699 83.3035 74.8494 83.2449 74.908C83.1863 74.9666 83.1068 74.9995 83.0239 74.9995H73.6489C73.5661 74.9995 73.4866 74.9666 73.428 74.908C73.3694 74.8494 73.3364 74.7699 73.3364 74.687V72.4995H83.3364V74.687Z" fill="#1D1D1B"/>
<path d="M33.3333 51.25C32.3391 51.2489 31.3859 50.8534 30.6829 50.1504C29.9799 49.4474 29.5844 48.4942 29.5833 47.5C29.5833 46.0444 30.7522 41.25 33.3333 41.25C35.9144 41.25 37.0833 46.0444 37.0833 47.5C37.0822 48.4942 36.6868 49.4474 35.9837 50.1504C35.2807 50.8534 34.3275 51.2489 33.3333 51.25ZM33.3333 43.8556C32.7974 44.455 32.0833 46.4677 32.0833 47.5C32.0833 47.8315 32.215 48.1495 32.4494 48.3839C32.6839 48.6183 33.0018 48.75 33.3333 48.75C33.6648 48.75 33.9828 48.6183 34.2172 48.3839C34.4516 48.1495 34.5833 47.8315 34.5833 47.5C34.5833 46.4677 33.8693 44.455 33.3333 43.8556Z" fill="#E11F1D"/>
<path d="M40.1771 39.9997C38.4445 39.9997 37.0348 38.5263 37.0348 36.7152C37.0348 35.6324 37.8549 31.396 40.1771 31.396C42.4993 31.396 43.3195 35.6324 43.3195 36.7152C43.3195 38.5263 41.9098 39.9997 40.1771 39.9997ZM40.1771 34.3054C39.856 34.9772 39.5348 36.1022 39.5348 36.7152C39.5348 37.1405 39.829 37.4997 40.1771 37.4997C40.5253 37.4997 40.8195 37.1404 40.8195 36.7152C40.8195 36.1029 40.4982 34.9777 40.1771 34.3054Z" fill="#E11F1D"/>
<defs>
<clipPath id="clip0">
<rect width="100" height="58.3333" fill="white" transform="translate(0 4.1665)"/>
</clipPath>
</defs>
</svg>
