<svg width="28" height="16" viewBox="0 0 28 16" fill="none" xmlns="http://www.w3.org/2000/svg">
<path d="M16.0252 6.34706V9.85939H19.4126C19.422 9.39976 19.3395 8.94287 19.1698 8.5156C19.0001 8.08834 18.7467 7.69932 18.4244 7.37144C18.1186 7.04209 17.747 6.78069 17.3337 6.60422C16.9204 6.42774 16.4746 6.34013 16.0252 6.34706Z" fill="white"/>
<path d="M0.988864 13.4091C0.666825 13.7372 0.413533 14.1262 0.243846 14.5535C0.0741577 14.9807 -0.00850986 15.4375 0.000691849 15.8971H3.2946H4.05617C4.65691 15.8954 5.25019 15.7639 5.7954 15.5116C6.34638 15.2169 6.83663 14.8206 7.24028 14.3436L8.89424 12.3859L15.7752 3.60919H18.005C18.2147 3.61459 18.4211 3.66216 18.6119 3.74905C18.8028 3.83595 18.9741 3.96039 19.1159 4.11495L23.2554 9.38754C24.3406 10.7553 23.9901 12.3859 23.9901 12.3859H15.3174C14.7158 12.3907 14.1224 12.5258 13.5781 12.7819C13.0269 13.0763 12.5366 13.4727 12.1332 13.95L10.4793 15.9076H23.8839C23.8839 15.9076 25.6932 16.0244 26.804 14.6812C27.6123 13.6988 27.7186 13.0225 27.7186 11.768C27.7186 9.94704 27.3682 9.71342 26.8892 9.01843L21.1191 1.65971C20.7886 1.23582 20.3866 0.872936 19.9312 0.587435C19.4023 0.277515 18.8036 0.106347 18.1908 0.0898438H14.6259L14.5721 0.158758V0.0933478H11.1848C11.1753 0.552983 11.2579 1.00987 11.4276 1.43714C11.5973 1.8644 11.8507 2.25341 12.173 2.5813C12.2687 2.67423 12.3697 2.76159 12.4755 2.84294L9.72472 6.3471L6.33737 10.6759C6.18859 10.3953 6.00276 10.136 5.78489 9.90499C5.47977 9.57637 5.10911 9.31541 4.69686 9.13896C4.28461 8.96251 3.83993 8.87449 3.39155 8.8806H0.00419631C-0.00474347 9.34017 0.0780443 9.7969 0.247718 10.2241C0.417391 10.6513 0.670543 11.0404 0.992368 11.3686C1.29772 11.6968 1.66845 11.9574 2.08067 12.1336C2.49288 12.3099 2.93744 12.3978 3.38571 12.3918H3.39155C2.94214 12.3836 2.49603 12.4699 2.08212 12.6452C1.66822 12.8205 1.29575 13.0807 0.988864 13.4091Z" fill="white"/>
</svg>
