<svg width="36" height="36" viewBox="0 0 36 36" fill="none" xmlns="http://www.w3.org/2000/svg">
<path d="M33.7523 24.9593C33.8153 19.404 31.0185 14.2402 26.2305 11.3152C24.6015 10.3207 22.8375 9.6795 21.0352 9.324C21.2467 8.883 21.375 8.39475 21.375 7.875C21.375 6.01425 19.8608 4.5 18 4.5C16.1392 4.5 14.625 6.01425 14.625 7.875C14.625 8.39475 14.7533 8.883 14.9648 9.324C13.1625 9.6795 11.3985 10.3185 9.7695 11.313C4.9815 14.238 2.18475 19.4017 2.24775 24.957C0.94275 25.425 0 26.6602 0 28.125C0 29.9858 1.51425 31.5 3.375 31.5H32.625C34.4857 31.5 36 29.9858 36 28.125C36 26.6602 35.0573 25.425 33.7523 24.9593ZM18 6.75C18.6187 6.75 19.125 7.25625 19.125 7.875C19.125 8.4825 18.639 8.973 18.036 8.99325C18.0112 8.99325 17.9865 8.99325 17.964 8.99325C17.361 8.973 16.875 8.4825 16.875 7.875C16.875 7.25625 17.3813 6.75 18 6.75ZM10.9417 13.2345C13.1017 11.916 15.5205 11.2545 17.9415 11.2455C17.9618 11.2433 17.9797 11.25 18 11.25C18.0203 11.25 18.0382 11.2455 18.0585 11.2433C20.4795 11.2545 22.8982 11.9138 25.056 13.2323C29.1105 15.7095 31.5 20.0565 31.5068 24.75H4.49325C4.5 20.0565 6.8895 15.7095 10.9417 13.2345ZM32.625 29.25H3.375C2.75625 29.25 2.25 28.7437 2.25 28.125C2.25 27.5063 2.75625 27 3.375 27H32.625C33.2438 27 33.75 27.5063 33.75 28.125C33.75 28.7437 33.2438 29.25 32.625 29.25Z" fill="white"/>
<path d="M26.3767 17.2418C24.2437 14.8635 21.1927 13.5 18 13.5C17.379 13.5 16.875 14.004 16.875 14.625C16.875 15.246 17.379 15.75 18 15.75C20.5538 15.75 22.9973 16.8413 24.7028 18.7448C24.9255 18.9923 25.2315 19.1182 25.5397 19.1182C25.8075 19.1182 26.0753 19.0238 26.2913 18.8303C26.7525 18.414 26.793 17.7053 26.3767 17.2418Z" fill="white"/>
</svg>
