<svg width="36" height="36" viewBox="0 0 36 36" fill="none" xmlns="http://www.w3.org/2000/svg">
<path d="M27 2.25C21.9533 2.25 18 4.7205 18 7.875C18 4.7205 14.0468 2.25 9 2.25C3.95325 2.25 0 4.7205 0 7.875V16.875C0 20.0295 3.95325 22.5 9 22.5V28.125C9 31.2795 12.9532 33.75 18 33.75C23.0467 33.75 27 31.2795 27 28.125V22.5C32.0467 22.5 36 20.0295 36 16.875V7.875C36 4.7205 32.0467 2.25 27 2.25ZM9 4.5C12.978 4.5 15.75 6.27975 15.75 7.875C15.75 9.47025 12.978 11.25 9 11.25C5.022 11.25 2.25 9.47025 2.25 7.875C2.25 6.27975 5.022 4.5 9 4.5ZM9 19.125V20.25C5.022 20.25 2.25 18.4702 2.25 16.875V11.5988C3.888 12.762 6.27075 13.5 9 13.5C11.7292 13.5 14.112 12.762 15.75 11.5988V13.6912C11.8328 14.3033 9 16.461 9 19.125ZM24.75 28.125C24.75 29.7202 21.978 31.5 18 31.5C14.022 31.5 11.25 29.7202 11.25 28.125V22.8487C12.888 24.012 15.2708 24.75 18 24.75C20.7292 24.75 23.112 24.012 24.75 22.8487V28.125ZM18 22.5C14.022 22.5 11.25 20.7202 11.25 19.125C11.25 17.5297 14.022 15.75 18 15.75C21.978 15.75 24.75 17.5297 24.75 19.125C24.75 20.7202 21.978 22.5 18 22.5ZM33.75 16.875C33.75 18.4702 30.978 20.25 27 20.25V19.125C27 16.461 24.1672 14.3033 20.25 13.6912V11.5988C21.888 12.762 24.2708 13.5 27 13.5C29.7292 13.5 32.112 12.762 33.75 11.5988V16.875ZM27 11.25C23.022 11.25 20.25 9.47025 20.25 7.875C20.25 6.27975 23.022 4.5 27 4.5C30.978 4.5 33.75 6.27975 33.75 7.875C33.75 9.47025 30.978 11.25 27 11.25Z" fill="white"/>
<path d="M9.04543 6.75H9.02293C8.40193 6.75 7.90918 7.254 7.90918 7.875C7.90918 8.496 8.42443 9 9.04543 9C9.66643 9 10.1704 8.496 10.1704 7.875C10.1704 7.254 9.66643 6.75 9.04543 6.75Z" fill="white"/>
<path d="M27.0454 6.75H27.0229C26.4019 6.75 25.9092 7.254 25.9092 7.875C25.9092 8.496 26.4244 9 27.0454 9C27.6664 9 28.1704 8.496 28.1704 7.875C28.1704 7.254 27.6664 6.75 27.0454 6.75Z" fill="white"/>
<path d="M18.0454 18H18.0229C17.4019 18 16.9092 18.504 16.9092 19.125C16.9092 19.746 17.4244 20.25 18.0454 20.25C18.6664 20.25 19.1704 19.746 19.1704 19.125C19.1704 18.504 18.6664 18 18.0454 18Z" fill="white"/>
</svg>
