<svg width="36" height="36" viewBox="0 0 36 36" fill="none" xmlns="http://www.w3.org/2000/svg">
<path d="M28.4895 8.6085C28.4782 8.5995 28.4737 8.58825 28.4625 8.57925C28.4377 8.56125 28.4108 8.559 28.386 8.5455C26.3025 7.4025 23.913 6.75 21.375 6.75H7.875C3.5325 6.75 0 10.2825 0 14.625C0 16.0898 0.94275 17.3272 2.25 17.793V24.75C2.25 27.2318 4.26825 29.25 6.75 29.25H29.25C31.7318 29.25 33.75 27.2318 33.75 24.75V22.0522C33.9367 22.1557 34.1302 22.2458 34.317 22.3515C34.4902 22.4505 34.6838 22.5 34.875 22.5C35.0708 22.5 35.2643 22.4505 35.4398 22.3492C35.7863 22.1467 36 21.7755 36 21.375C36 15.894 32.9647 11.1128 28.4895 8.6085ZM21.375 9C23.085 9 24.6982 9.37575 26.1788 10.0058C25.0763 11.8665 24.3337 13.9837 23.9535 16.3282C21.9667 15.984 19.9575 15.75 17.9303 15.75H17.3228C18.0112 12.5392 19.4153 10.3658 20.637 9H21.375ZM17.784 9C16.659 10.6245 15.588 12.843 15.0367 15.75H9.44775C10.1362 12.5392 11.5402 10.3658 12.762 9H17.784ZM3.375 15.75C2.754 15.75 2.25 15.246 2.25 14.625C2.25 11.5245 4.7745 9 7.875 9H9.91125C8.78625 10.6245 7.71525 12.843 7.164 15.75H3.375ZM31.5 24.75C31.5 25.9897 30.4897 27 29.25 27H6.75C5.51025 27 4.5 25.9897 4.5 24.75V18H17.9303C22.6147 18 27.2453 19.0193 31.5 20.9363V24.75ZM33.1605 19.2352C33.0952 19.1992 33.0277 19.17 32.9535 19.1475C30.771 18.1215 28.5008 17.3003 26.163 16.7378C26.5005 14.6205 27.1688 12.7238 28.1588 11.0722C30.9938 12.9465 33.039 15.9277 33.5947 19.4197C33.4552 19.35 33.3045 19.3027 33.1605 19.2352Z" fill="white"/>
</svg>
