<svg width="36" height="36" viewBox="0 0 36 36" fill="none" xmlns="http://www.w3.org/2000/svg">
<path d="M34.875 7.875C35.496 7.875 36 7.371 36 6.75C36 6.129 35.496 5.625 34.875 5.625H18V3.375H34.875C35.496 3.375 36 2.871 36 2.25C36 1.629 35.496 1.125 34.875 1.125H7.875C7.254 1.125 6.75 1.629 6.75 2.25V14.625H1.125C0.504 14.625 0 15.129 0 15.75C0 22.6395 4.4865 28.8293 11.25 31.3943V33.75C11.25 34.371 11.754 34.875 12.375 34.875H23.625C24.246 34.875 24.75 34.371 24.75 33.75V31.3943C31.5135 28.8293 36 22.6373 36 15.75C36 15.129 35.496 14.625 34.875 14.625H18V7.875H34.875ZM13.5 3.375H15.75V5.625H13.5V3.375ZM13.5 7.875H15.75V14.625H13.5V7.875ZM9 3.375H11.25V5.625H9V3.375ZM9 7.875H11.25V14.625H9V7.875ZM33.705 16.875C33.228 22.59 29.1555 27.5895 23.274 29.5312C22.8127 29.682 22.5 30.114 22.5 30.6V32.625H13.5V30.6C13.5 30.114 13.1873 29.6842 12.726 29.5312C6.8445 27.5895 2.772 22.59 2.29725 16.875H33.705Z" fill="white"/>
</svg>
