<svg width="36" height="36" viewBox="0 0 36 36" fill="none" xmlns="http://www.w3.org/2000/svg">
<path d="M34.875 14.625H33.3563C33.6082 13.905 33.75 13.1445 33.75 12.375C33.75 8.838 31.0163 5.92875 27.5513 5.6475C26.2665 4.19625 24.4552 3.375 22.5 3.375C20.5448 3.375 18.7335 4.19625 17.4487 5.6475C15.93 5.77125 14.5688 6.41925 13.5 7.3845V2.25C13.5 1.629 12.996 1.125 12.375 1.125C9.08775 1.125 6.20325 3.20175 5.058 6.1515C5.0445 6.1515 5.031 6.1425 5.0175 6.1425C4.6755 6.1965 4.43025 6.264 4.21875 6.47775C2.03175 8.685 1.7055 12.0443 3.186 14.625H1.125C0.504 14.625 0 15.129 0 15.75C0 22.6395 4.48875 28.8293 11.25 31.3943V33.75C11.25 34.371 11.754 34.875 12.375 34.875H23.625C24.246 34.875 24.75 34.371 24.75 33.75V31.3943C31.5112 28.8293 36 22.6373 36 15.75C36 15.129 35.496 14.625 34.875 14.625ZM18 7.875C18.3533 7.875 18.6863 7.71075 18.8978 7.42725C20.6235 5.13675 24.3765 5.13675 26.1 7.42725C26.3138 7.71075 26.6467 7.875 27 7.875C29.4818 7.875 31.5 9.89325 31.5 12.375C31.5 13.1783 31.2367 13.9432 30.8363 14.625H25.875L27.675 13.275C28.1723 12.9015 28.2735 12.1972 27.9 11.7C27.5265 11.2027 26.8223 11.097 26.325 11.4727L23.625 13.4978V11.2478C23.625 10.629 23.121 10.125 22.5 10.125C21.879 10.125 21.375 10.629 21.375 11.25V13.5L18.675 11.475C18.1777 11.1038 17.4735 11.205 17.1 11.7C16.7265 12.1972 16.8277 12.9015 17.325 13.275L19.125 14.625H14.1637C13.7633 13.9432 13.5 13.1783 13.5 12.375C13.5 9.89325 15.5182 7.875 18 7.875ZM11.25 3.48975V11.9093L6.948 7.60725C7.4655 5.526 9.1575 3.9195 11.25 3.48975ZM5.12325 8.964L10.7843 14.625H6.0345C5.9625 14.5642 5.88825 14.5125 5.81625 14.4405C4.34925 12.9578 4.1175 10.6943 5.12325 8.964ZM23.2718 29.5312C22.8128 29.682 22.5 30.114 22.5 30.6V32.625H13.5V30.6C13.5 30.114 13.1873 29.6842 12.7283 29.5312C6.8445 27.5895 2.772 22.59 2.29725 16.875H33.7028C33.228 22.59 29.1555 27.5895 23.2718 29.5312Z" fill="white"/>
</svg>
