<svg width="24" height="24" viewBox="0 0 24 24" fill="none" xmlns="http://www.w3.org/2000/svg">
<path d="M6.09351 8.86963C5.70519 8.86963 5.39038 9.18444 5.39038 9.57275V19.922C5.39038 20.3103 5.70519 20.6251 6.09351 20.6251C6.48182 20.6251 6.79663 20.3103 6.79663 19.922V9.57275C6.79663 9.18444 6.48182 8.86963 6.09351 8.86963Z" fill="white"/>
<path d="M9.46875 8.86963C9.08044 8.86963 8.76562 9.18444 8.76562 9.57275V19.922C8.76562 20.3103 9.08044 20.6251 9.46875 20.6251C9.85706 20.6251 10.1719 20.3103 10.1719 19.922V9.57275C10.1719 9.18444 9.85706 8.86963 9.46875 8.86963Z" fill="white"/>
<path d="M12.8438 8.86963C12.4554 8.86963 12.1406 9.18444 12.1406 9.57275V19.922C12.1406 20.3103 12.4554 20.6251 12.8438 20.6251C13.2321 20.6251 13.5469 20.3103 13.5469 19.922V9.57275C13.5469 9.18444 13.2321 8.86963 12.8438 8.86963Z" fill="white"/>
<path d="M19.8194 5.71847H16.2188H15.9471C15.9595 5.61037 15.9661 5.50148 15.9661 5.39241C15.9661 3.80662 14.6759 2.51644 13.0901 2.51644H12.611C12.2893 1.07817 11.0025 0 9.4686 0C8.54061 0 7.66471 0.400219 7.05721 1.08684C6.10312 1.14755 5.28065 1.7782 4.95922 2.6572C3.79799 3.03619 2.97121 4.13766 2.97121 5.39245C2.97121 5.50158 2.97777 5.61042 2.99015 5.71852H2.71851C2.33019 5.71852 2.01538 6.03333 2.01538 6.42164V21.3867C2.01538 22.8277 3.18768 24 4.62866 24H14.3086C15.7495 24 16.9219 22.8277 16.9219 21.3867V17.2499H19.8193C21.0132 17.2499 21.9844 16.2786 21.9844 15.0848V7.88353C21.9844 6.68972 21.0132 5.71847 19.8194 5.71847ZM4.37746 5.39241C4.37746 4.66687 4.91793 4.04175 5.6346 3.93825C5.94468 3.89348 6.18772 3.64898 6.23062 3.33862C6.2976 2.85384 6.71797 2.48827 7.20838 2.48827C7.24344 2.48827 7.28015 2.49033 7.31751 2.49445C7.57476 2.52244 7.82671 2.40722 7.97338 2.19394C8.31271 1.70072 8.8716 1.40625 9.4686 1.40625C10.4685 1.40625 11.282 2.21972 11.282 3.21961C11.282 3.60792 11.5968 3.92273 11.9851 3.92273H13.09C13.9004 3.92273 14.5597 4.58203 14.5597 5.39245C14.5597 5.50388 14.5477 5.61272 14.5238 5.71852H4.41341C4.38951 5.61272 4.37746 5.50383 4.37746 5.39241ZM15.5156 21.3867C15.5156 22.0522 14.9741 22.5938 14.3086 22.5938H4.62866C3.96308 22.5938 3.42163 22.0522 3.42163 21.3867V7.12472H15.5156V16.5467V21.3867ZM20.5782 15.0848C20.5782 15.5033 20.2378 15.8437 19.8193 15.8437H16.9219V7.12472H19.8193C20.2378 7.12472 20.5782 7.46513 20.5782 7.88353V15.0848Z" fill="white"/>
</svg>
