<svg width="36" height="36" viewBox="0 0 36 36" fill="none" xmlns="http://www.w3.org/2000/svg">
<g clip-path="url(#clip0)">
<path d="M36 17.9991C36 16.2779 35.2957 14.7366 34.1707 13.9829L34.1685 13.9806L18.6278 3.56314C18.6075 3.54964 18.5827 3.54739 18.5602 3.53614C18.4927 3.49789 18.4252 3.47539 18.3532 3.45289C18.2835 3.43039 18.216 3.40564 18.144 3.39664C18.0765 3.38764 18.0112 3.39439 17.9438 3.39664C17.8673 3.40114 17.793 3.40339 17.7188 3.42139C17.6558 3.43714 17.5972 3.46639 17.5365 3.49564C17.4622 3.52939 17.3925 3.56314 17.3273 3.61039C17.3115 3.62389 17.289 3.62839 17.271 3.64414L16.3485 4.43164C15.876 4.83439 15.8175 5.54539 16.2225 6.01789C16.4452 6.27889 16.7603 6.41164 17.0775 6.41164C17.3363 6.41164 17.595 6.32164 17.8065 6.14164L18.081 5.90764L29.9565 13.8681L4.761 17.4681L7.66575 14.9594C8.136 14.5521 8.1855 13.8411 7.7805 13.3709C7.37325 12.8984 6.6645 12.8534 6.19425 13.2561L0.38925 18.2736C0.369 18.2894 0.36225 18.3141 0.34425 18.3299C0.2835 18.3906 0.234 18.4581 0.189 18.5324C0.1575 18.5819 0.12375 18.6246 0.10125 18.6764C0.06975 18.7484 0.05625 18.8271 0.0405 18.9059C0.027 18.9666 0.009 19.0206 0.00675 19.0814C0.00675 19.0971 0 19.1084 0 19.1241V25.8741V32.6241C0 32.9504 0.14175 33.2609 0.38925 33.4746C0.594 33.6524 0.85725 33.7491 1.125 33.7491C1.17675 33.7491 1.23075 33.7469 1.2825 33.7379L32.7825 29.2379C32.7982 29.2356 32.8095 29.2266 32.8252 29.2221C34.6185 29.0849 36 27.1814 36 24.7491C36 23.3834 35.5568 22.1931 34.8592 21.3741C35.5568 20.5551 36 19.3649 36 17.9991ZM32.625 26.9991C32.598 26.9991 32.5755 27.0126 32.5485 27.0149C32.5215 27.0171 32.4945 27.0059 32.4675 27.0104L2.25 31.3259V26.8484L32.6452 22.5059C33.1042 22.5306 33.75 23.3946 33.75 24.7491C33.75 26.1216 33.084 26.9991 32.625 26.9991ZM32.625 20.2491C32.598 20.2491 32.5732 20.2626 32.5462 20.2649C32.5192 20.2671 32.4945 20.2559 32.4652 20.2604L2.25 24.5759V20.0984L32.6475 15.7581C32.733 15.7626 32.8185 15.7874 32.913 15.8526C33.318 16.1204 33.75 16.9079 33.75 17.9991C33.75 19.3716 33.084 20.2491 32.625 20.2491Z" fill="white"/>
<path d="M13.5383 6.96965C13.473 5.48465 12.825 3.4664 10.629 2.3684C10.0732 2.0939 9.4005 2.31665 9.11925 2.87015C8.8425 3.4259 9.06525 4.10315 9.621 4.3799C10.9418 5.03915 11.241 6.1844 11.2883 6.94265C9.963 7.3994 9 8.6459 9 10.1241C9 11.9849 10.5142 13.4991 12.375 13.4991C14.2358 13.4991 15.75 11.9849 15.75 10.1241C15.75 8.6729 14.8253 7.4444 13.5383 6.96965ZM12.375 11.2491C11.7562 11.2491 11.25 10.7451 11.25 10.1241C11.25 9.50315 11.7562 8.99915 12.375 8.99915C12.9938 8.99915 13.5 9.50315 13.5 10.1241C13.5 10.7451 12.9938 11.2491 12.375 11.2491Z" fill="white"/>
</g>
<defs>
<clipPath id="clip0">
<rect width="36" height="36" fill="white"/>
</clipPath>
</defs>
</svg>
