<svg width="36" height="36" viewBox="0 0 36 36" fill="none" xmlns="http://www.w3.org/2000/svg">
<path d="M25.4531 1H6.46875V2.05469C6.46875 4.87942 7.46578 7.43071 9.12382 9.4375H0V10.4922C0 16.9294 5.35662 22.0938 11.7422 22.0938H15.705C17.5908 22.0938 19.125 23.628 19.125 25.5138C19.125 26.1429 18.9562 26.7461 18.6401 27.2717C17.8036 25.4623 15.9724 24.2031 13.8516 24.2031H10.6875V25.2578C10.6875 26.981 11.5185 28.5136 12.8005 29.4766C11.5185 30.4395 10.6875 31.9721 10.6875 33.6953V34.75H13.8516C16.3982 34.75 18.5289 32.9354 19.0189 30.5312H19.125C24.5128 30.5312 28.9693 26.4701 29.5959 21.2484C33.4534 19.601 36 15.7858 36 11.5469C36 5.73133 31.2687 1 25.4531 1ZM13.8516 32.6406H12.9776C13.4129 31.4129 14.5859 30.5242 15.9609 30.5242H16.8349C16.3996 31.7519 15.2266 32.6406 13.8516 32.6406ZM15.9609 28.4219C14.5859 28.4219 13.4129 27.5402 12.9776 26.3125H13.8516C15.2266 26.3125 16.3996 27.1941 16.8349 28.4219H15.9609ZM8.63529 3.10938H17.0156C19.3418 3.10938 21.2344 5.00191 21.2344 7.32812C21.2344 8.11267 21.0138 8.88034 20.6062 9.54198C20.122 9.47364 19.6277 9.4375 19.125 9.4375H12.1044C10.1345 7.84703 8.90663 5.5957 8.63529 3.10938ZM11.1023 19.9632C6.44393 19.6607 2.6794 16.0804 2.16844 11.5469H10.6875C13.0137 11.5469 14.9062 13.4394 14.9062 15.7656C14.9062 17.9238 13.2405 19.7544 11.1023 19.9632ZM15.705 19.9844H15.4021C16.4426 18.8225 17.0156 17.3292 17.0156 15.7656C17.0156 14.1463 16.4039 12.6673 15.3998 11.5469H19.125C20.2062 11.5469 21.2404 11.7516 22.1913 12.1238C22.9461 13.1922 23.3438 14.4453 23.3438 15.7656C23.3438 18.3076 21.8495 20.5588 19.5645 21.5594C18.5673 20.5859 17.2054 19.9844 15.705 19.9844ZM20.4756 28.3139C20.8828 27.6228 21.1332 26.8504 21.2093 26.041C21.8999 26.2213 22.6133 26.3125 23.3438 26.3125C23.8539 26.3125 24.3561 26.2664 24.8475 26.1787C23.6559 27.2803 22.1473 28.0437 20.4756 28.3139ZM26.9852 23.051C25.9169 23.8055 24.6639 24.2031 23.3438 24.2031C22.5058 24.2031 21.6984 24.0435 20.9372 23.7294C20.8897 23.5905 20.8375 23.4538 20.7795 23.3201C21.9634 22.7316 22.9913 21.8723 23.7946 20.7901C24.8797 19.3282 25.4531 17.5908 25.4531 15.7656C25.4531 15.2555 25.4071 14.7533 25.3193 14.2619C26.7107 15.7669 27.5625 17.7779 27.5625 19.9844C27.5625 21.0657 27.3575 22.1 26.9852 23.051ZM26.7234 12.6777C25.6153 11.5259 24.2488 10.6244 22.718 10.0681C23.1257 9.21848 23.3438 8.28163 23.3438 7.32812C23.3438 5.70876 22.732 4.2298 21.728 3.10938H25.4531C26.5343 3.10938 27.5685 3.31405 28.5195 3.68629C29.2742 4.75469 29.6719 6.0078 29.6719 7.32812C29.6719 9.50331 28.5357 11.5275 26.7234 12.6777ZM29.615 18.8873C29.5793 18.5437 29.5272 18.205 29.4593 17.872C29.5301 17.8737 29.601 17.875 29.6719 17.875C30.184 17.875 30.6883 17.8285 31.1816 17.7401C30.7091 18.178 30.1845 18.564 29.615 18.8873ZM29.6719 15.7656C29.3666 15.7656 29.0621 15.7437 28.7618 15.7006C28.5513 15.2289 28.3072 14.7754 28.0325 14.3431C28.9872 13.7045 29.8058 12.8759 30.4354 11.9013C31.3159 10.5385 31.7812 8.95712 31.7812 7.32812C31.7812 6.81801 31.7352 6.31577 31.6474 5.82435C33.0389 7.32946 33.8906 9.3404 33.8906 11.5469C33.8906 12.6184 33.6859 13.6556 33.3103 14.6155C32.2427 15.3687 30.9908 15.7656 29.6719 15.7656Z" fill="white"/>
<path d="M8.57812 13.6562H6.46875V15.7656H8.57812V13.6562Z" fill="white"/>
<path d="M14.9062 5.21875H12.7969V7.32812H14.9062V5.21875Z" fill="white"/>
</svg>
