<svg width="74" height="88" viewBox="0 0 74 88" fill="none" xmlns="http://www.w3.org/2000/svg">
<g clip-path="url(#clip0)">
<path d="M8.52272 62.4847H0.645218V64.7437H3.36759V76H5.80035V64.7437H8.52272V62.4847ZM9.9634 62.4847V76H12.3382V62.4847H9.9634ZM21.7778 62.4847H13.9003V64.7437H16.6227V76H19.0555V64.7437H21.7778V62.4847ZM28.1564 76H30.6278L27.3069 62.4847H24.7583L21.4374 76H23.9088L24.4494 73.5479H27.6158L28.1564 76ZM24.9321 71.2889L25.4727 68.779C25.6658 67.8522 25.8781 66.3655 25.994 65.458H26.0519C26.1871 66.3655 26.3994 67.8522 26.5925 68.779L27.1331 71.2889H24.9321ZM39.6519 76.2317C42.2584 76.2317 43.7837 74.7257 43.8802 71.984H41.5054C41.4088 73.3356 40.8296 73.9341 39.6519 73.9341C38.6479 73.9341 38.0493 73.2969 38.0493 71.9454V66.5393C38.0493 65.1491 38.6479 64.512 39.6325 64.512C40.791 64.512 41.3702 65.1105 41.4475 66.5007H43.8223C43.7064 63.7397 42.2391 62.2144 39.6519 62.2144C37.1226 62.2144 35.5973 63.7397 35.5973 66.5393V71.9454C35.5973 74.7257 37.1419 76.2317 39.6519 76.2317ZM50.5809 62.4847L48.8239 68.528L46.8931 62.4847H44.3831L47.762 72.1964C47.3179 73.7024 46.8931 74.0885 45.8505 74.0885H45.2713V76.2124H45.7733C48.0323 76.2124 49.0363 75.5752 49.8665 72.9108L53.0715 62.4847H50.5809ZM54.3294 76H67.4779V62.4847H65.1417V73.741H62.0717V62.4847H59.7355V73.741H56.6656V62.4847H54.3294V76ZM70.0357 62.4847V76H72.4105V62.4847H70.0357Z" fill="white"/>
<path d="M42.7823 24.7051V34.082H51.8255C51.8508 32.8549 51.6304 31.6351 51.1774 30.4945C50.7243 29.3538 50.0477 28.3152 49.1874 27.4399C48.3711 26.5606 47.379 25.8628 46.2756 25.3917C45.1722 24.9205 43.982 24.6866 42.7823 24.7051Z" fill="white"/>
<path d="M2.63996 43.5584C1.78022 44.4342 1.10401 45.4728 0.650992 46.6134C0.197978 47.7539 -0.0227187 48.9735 0.00184702 50.2005H8.79556H10.8287C12.4325 50.1959 14.0164 49.8449 15.4719 49.1714C16.9429 48.3846 18.2517 47.3265 19.3293 46.0531L23.7449 40.8267L42.115 17.3956H48.0679C48.6275 17.41 49.1785 17.537 49.688 17.769C50.1975 18.0009 50.6551 18.3332 51.0334 18.7458L62.0848 32.822C64.9818 36.4735 64.0463 40.8267 64.0463 40.8267H40.8926C39.2867 40.8394 37.7025 41.2001 36.2494 41.8839C34.7779 42.6699 33.4689 43.7281 32.392 45.0022L27.9765 50.2285H63.7625C63.7625 50.2285 68.5928 50.5404 71.5583 46.9543C73.7162 44.3318 74 42.5262 74 39.1771C74 34.3157 73.0645 33.692 71.786 31.8366L56.3814 12.191C55.4991 11.0594 54.4258 10.0906 53.21 9.32842C51.798 8.50102 50.1997 8.04406 48.5637 8H39.0466L38.9031 8.18398V8.00935H29.8599C29.8347 9.23644 30.055 10.4562 30.5081 11.5969C30.9611 12.7375 31.6377 13.7761 32.498 14.6514C32.7537 14.8995 33.0233 15.1327 33.3057 15.3499L25.962 24.7049L16.9188 36.2615C16.5216 35.5125 16.0255 34.8202 15.4439 34.2034C14.6293 33.3261 13.6398 32.6294 12.5392 32.1583C11.4386 31.6873 10.2514 31.4523 9.05438 31.4686H0.0112028C-0.0126636 32.6955 0.208354 33.9149 0.66133 35.0553C1.1143 36.1958 1.79014 37.2345 2.64932 38.1107C3.46452 38.987 4.45425 39.6827 5.55473 40.1532C6.65522 40.6237 7.84206 40.8585 9.03879 40.8423H9.05438C7.8546 40.8205 6.66362 41.051 5.55863 41.5189C4.45363 41.9868 3.45926 42.6817 2.63996 43.5584Z" fill="white"/>
</g>
<defs>
<clipPath id="clip0">
<rect width="74" height="87.8001" fill="white"/>
</clipPath>
</defs>
</svg>
